<?xml version="1.0" encoding="utf-8" ?><svg xmlns="http://www.w3.org/2000/svg" xmlns:xlink="http://www.w3.org/1999/xlink" width="673" height="688" viewBox="0 0 673 688"><path fill="#363536" transform="scale(1.19449 1.19449)" d="M242.343 195.052C246.299 196.528 249.419 196.77 252.139 200.856C254.424 204.29 253.973 209.981 253.178 213.877C249.494 216.689 246.618 216.562 242.333 215.719C240.047 220.296 231.625 227.639 227.448 230.994C228.091 236.344 228.14 242.163 228.75 247.432C230.321 261.021 231.208 274.279 232.027 287.913C232.78 287.39 233.522 286.853 234.254 286.302C240.4 281.61 240.164 274.053 241.207 267.173C242.486 258.505 245.24 250.081 249.021 242.187C250.313 239.49 254.789 229.912 258.503 230.673C262.26 234.477 255.548 254.798 254.577 260.446C252.493 268.867 255.167 282.548 262.938 287.478C274.327 294.704 291.813 283.187 292.826 270.503C293.943 256.526 291.084 244.413 287.729 231.317C289.025 227.001 290.237 223.946 292.098 219.869C298.847 232.197 298.556 239.664 299.823 253.228C301.007 265.906 301.587 293.712 321.142 288.65C324.661 287.739 326.957 285.817 328.73 282.816C324.851 269.207 321.166 255.542 317.677 241.828C314.455 229.472 313.234 231.997 316.881 219.18C320.697 225.163 325.227 231.28 329.226 237.378C326.989 236.777 324.859 236.334 322.568 235.682C325.774 244.79 333.346 266.928 333.784 275.719C334.146 282.967 330.992 290.767 326.063 296.065C323.322 299.012 319.849 299.899 315.962 300.039C310.891 300.222 305.118 298.678 301.4 295.077C297.279 291.084 296.05 285.444 296.012 279.908C292.511 287.503 289.706 293.197 282.29 297.577C277.105 300.639 270.914 301.512 265.084 300.005C255.186 297.411 248.706 287.457 248.707 277.48C248.708 267.492 250.256 256.717 252.854 247.086C240.889 259.964 249.68 292.602 232.296 296.784C232.299 304.51 231.603 318.571 229.59 325.566C228.704 325.307 229.114 325.521 228.405 324.756C227.742 315.798 226.581 304.52 226.26 295.778C218.221 291.115 213.972 282.926 211.329 274.279C209.855 269.455 209.341 250.233 211.067 246.392C211.735 245.924 211.367 245.998 212.166 246.059C212.873 246.7 212.932 247.334 212.964 248.272C213.472 263.311 213.826 275.533 225.305 286.492C224.665 276.443 223.879 266.403 222.944 256.376C222.497 251.63 221.148 239.928 221.529 235.779C215.653 239.679 209.761 243.458 203.13 245.785C200.948 246.552 197.875 247.204 197.054 249.559C197.574 252.023 204.41 251.419 206.395 251.226C203.758 255.043 202.463 259.767 199.009 262.69L198.626 263.008C198.17 265.319 198.617 267.925 198.676 270.275C199.093 286.682 204.807 304.741 181.063 303.996C181.277 312.18 181.046 313.943 177.194 321.469C192.438 329.809 203.056 335.074 220.058 338.96C254.155 346.754 289.433 344.282 322.849 334.409C339.43 329.484 351.535 323.471 364.849 312.395C364.709 303.319 362.742 300.102 357.137 293.353C358.092 289.964 359.461 286.456 360.849 283.219C364.254 288.879 369.469 296.675 376.909 291.977C381.483 289.089 382.655 283.877 386.71 280.603C388.397 279.287 392.558 277.963 394.662 277.16C407.569 272.231 420.97 270.319 434.713 269.018C431.683 267.256 417.543 258.615 415.18 258.387L414.95 258.63C414.292 259.315 413.443 260.199 412.467 260.051C408.49 259.45 395.207 258.778 391.727 257.821C390.504 255.442 395.575 249.466 397.682 248.493C403.731 245.7 412.365 245.388 418.655 247.65C422.519 249.24 430.075 253.054 433.49 255.413C432.071 248.198 431.832 240.454 430.222 232.609C431.071 229.907 433.608 225.278 434.996 222.673C437.478 230.654 440.407 237.781 443.091 245.554C441.756 244.526 440.355 243.507 439.146 242.338C439.295 246.164 440.176 255.042 441.101 258.655C447.054 261.745 453.31 263.802 459.607 266.106C458.915 262.192 458.416 257.926 458.079 253.951C457.464 246.695 455.291 241.826 460.61 235.79C465.572 242.778 467.758 250.139 470.096 258.195C468.286 257.307 466.018 256.268 464.336 255.242C465.421 259.802 465.266 263.894 466.095 268.143C472.698 270.037 476.826 270.811 483.598 271.94C481.638 275.162 479.489 278.407 478.138 281.919C474.69 281.416 471.259 280.808 467.848 280.098C468.663 284.314 469.269 291.813 469.729 296.438C470.826 307.465 472.153 319.223 471.482 330.275C471.201 334.889 469.76 341.056 468.644 345.518C468.581 337.267 466.256 325.329 465.33 316.967C463.952 304.537 462.222 292.003 461.204 279.543C454.716 279.332 448.963 279.373 442.559 279.319C442.637 286.473 441.943 299.628 436.754 305.04C434.108 307.801 431.433 307.978 427.944 308.082C429.088 319.334 429.46 326.914 421.876 336.005C409.865 350.405 388.508 366.897 370.311 352.524C362.183 346.104 360.893 333.223 362.125 323.691C334.53 353.509 264.759 356.698 227.418 350.293C224.652 349.819 209.075 346.338 208.113 346.406L207.826 346.372C207.585 346.131 207.571 346.042 207.273 345.961C193.515 342.253 181.88 337.237 169.96 329.403C169.119 330.245 168.224 331.032 167.281 331.759C157.591 339.316 140.356 347.103 127.975 345.513C123.039 344.847 118.568 342.255 115.536 338.304C110.096 331.253 110.424 321.741 111.434 313.397C104.667 308.864 96.0479 303.147 87.577 303.037C72.2438 302.838 58.3023 311.749 46.6112 320.807C39.6886 326.171 32.6303 334.092 23.3295 334.559C13.3965 335.015 9.71107 327.594 9.46799 318.908C9.18154 308.671 14.3151 298.218 21.0152 290.695C21.9013 289.7 24.7487 286.998 26.0288 286.981C26.2956 287.922 25.4944 289.756 24.9921 290.567C20.1505 298.433 13.2095 308.542 13.0831 318.034C12.9567 327.529 24.5192 325.801 29.9095 322.355C32.5998 320.635 34.3184 319.078 36.4258 316.905C47.4884 305.498 61.5535 297.713 76.751 293.329C79.6966 292.48 82.6461 291.525 85.7529 291.279C84.2337 283.528 84.2866 268.938 88.8963 262.227C94.2415 254.445 100.427 252.111 109.046 250.114C109.839 256.856 111.036 265.528 118.442 267.904C131.381 272.057 151.8 261.464 163.578 256.314C160.06 254.623 153.736 252.57 149.877 251.152L128.256 243.128C127.665 243.929 126.873 244.925 125.847 245.023C119.43 245.631 112.208 245.349 105.785 245.496C106.794 242.549 108.147 237.336 110.897 235.833C128.564 226.175 154.721 240.826 172.417 245.991C179.536 248.069 183.705 248.969 190.443 250.429C189.901 241.373 188.39 231.703 187.433 222.639C186.223 211.187 184.374 211.223 189.991 200.982C192.931 207.215 196.745 217.718 199.262 224.37C197.518 223.562 195.889 222.69 194.19 221.793C195.504 229.151 196.29 238.967 197.16 246.603C206.771 241.392 212.299 237.145 221.138 231.525C220.424 224.755 219.805 217.975 219.282 211.188C218.827 204.467 218.495 200.293 223.083 195.043C227.652 203.956 230.729 212.297 231.585 222.343C229.29 221.133 228.335 220.637 226.48 218.855C226.718 221.327 226.815 224.138 226.958 226.641C230.907 223.508 235.466 218.647 239.774 215.082C238.574 213.939 237.434 212.752 236.277 211.566C238.897 206.3 240.931 200.762 242.343 195.052ZM105.246 262.505C99.6302 264.406 96.5346 265.859 92.4603 270.41C90.1861 272.95 87.2515 276.062 88.9352 279.86C93.7939 290.818 108.622 292.777 115.628 301.531C116.2 299.898 116.419 298.808 117.836 297.865L118.321 297.988C119.177 299.71 117.969 303.852 117.533 305.774C112.562 327.691 121.688 339.146 143.779 333.947C150.659 331.728 157.371 328.994 163.255 324.699C156.47 319.154 144.833 305.813 143.177 296.891C142.858 295.173 143.154 282.481 143.334 280.191C150.823 298.101 157.674 305.901 172.224 317.802C173.785 316.435 175.388 315.105 176.742 313.535C175.402 308.597 170.661 296.03 170.974 291.927C171.214 288.787 172.513 285.692 173.49 282.724C177.623 293.356 184.784 298.078 195.344 291.088C194.279 282.09 192.764 271.047 192.362 262.179C190.694 262.263 189.373 262.289 187.704 262.255C175.919 262.775 167.078 264.968 155.904 268.671C152.817 269.664 149.789 270.829 146.834 272.162C137.273 276.477 121.253 285.433 111.592 276.863C107.661 273.376 106.265 267.433 105.246 262.505ZM400.394 284.662C404.25 292.077 406.78 303.993 397.232 308.28C388.157 307.522 385.617 300.337 384.191 292.607C380.773 298.421 376.052 302.903 369.352 304.454C369.421 313.831 368.436 314.707 364.614 322.109L364.742 322.513C367.362 330.95 365.096 334.34 372.437 342.413C387.781 355.984 416.613 336.523 424.845 322.534C423.464 315.508 421.791 311.981 417.94 305.727C416.816 303.901 414.973 301.094 414.048 299.249C414.976 296.797 417.015 291.88 418.274 289.576C420.089 292.375 421.851 295.209 423.558 298.075C427.105 298.224 433.668 298.574 436.325 295.904C439.892 292.318 436.711 284.774 436.388 280.246L436.033 279.872L435.313 279.966C427.614 280.585 419.967 281.966 412.329 283.053C408.667 283.574 404.003 284.568 400.394 284.662ZM249.239 210.794C250.367 210.129 250.062 210.585 250.397 209.536C250.262 208.205 249.252 205.942 248.326 205.156C247.523 206.891 245.695 209.352 247.553 210.645L249.239 210.794ZM243.236 209.434C244.083 206.79 244.432 205.092 241.176 204.24C240.652 206.628 240.458 208.504 243.236 209.434ZM398.83 298.286C397.138 294.734 394.971 290.807 390.675 290.169C392.134 294.106 394.364 297.586 398.83 298.286Z"/><path fill="#363536" transform="scale(1.19449 1.19449)" d="M186.474 268.031C187.312 267.915 187.754 267.865 188.286 268.502L188.104 269.21C187.197 270.258 185.661 271.098 184.408 271.697C176.124 275.656 167.337 278.5 158.891 282.097C156.585 283.079 154.145 284.07 151.76 284.794C150.534 284.838 151.048 285.001 150.1 284.51C149.886 283.565 150.439 282.951 151.28 282.568C161.113 278.096 171.202 274.099 181.166 269.916C182.94 269.171 184.611 268.502 186.474 268.031Z"/><path fill="#363536" transform="scale(1.19449 1.19449)" d="M132.092 307.319C135.203 309.318 138.421 312.398 141.213 314.89C140.137 317.1 137.768 320.657 136.398 322.837C135.379 322.657 129.893 316.927 127.736 315.582C128.849 313.289 130.655 309.212 132.092 307.319Z"/><path fill="#363536" transform="scale(1.19449 1.19449)" d="M129.195 294.066C131.603 294.297 135.195 298.966 136.861 300.816C135.97 302.163 133.359 305.163 132.184 306.671L131.502 306.747C129.436 305.807 126.157 301.498 124.757 299.66C126.357 297.745 127.712 296.069 129.195 294.066Z"/><path fill="#363536" transform="scale(1.19449 1.19449)" d="M384.467 315.149C387.756 317.236 384.31 326.75 385.97 328.404C394.28 336.687 394.049 319.407 394.608 315.714C396.894 320.204 397.024 324.594 398.67 329.236C399.094 330.431 400.561 331.2 401.82 330.929C404.854 327.932 401.412 320.1 403.195 315.463C409.638 323.626 407.573 345.137 395.247 330.902C382.158 346.264 379.798 322.463 384.467 315.149Z"/><path fill="#363536" transform="scale(1.19449 1.19449)" d="M542.492 292.587C543.907 293.507 551.813 308.125 553.213 310.492L548.906 307.537C550.104 311.154 551.507 316.449 552.517 320.21C555.068 330.334 559.36 341.602 555.245 351.853C550.14 364.572 535.442 361.39 531.553 350.059L531.353 350.508C526.065 362.299 514.688 369.466 508.909 353.287C503.436 362.997 492.576 372.744 482.531 361.852C480.207 359.332 478.917 357.574 478.044 354.199C474.857 354.909 470.071 356.526 466.825 357.496C461.457 359.083 456.053 360.547 450.618 361.887C419.304 369.612 384.491 375.689 352.353 378.273C314.067 381.144 275.625 381.282 237.32 378.685C195.842 376.199 155.675 372.472 117.024 355.658C109.801 352.516 97.1957 347.167 91.1616 342.379C90.7105 343.914 90.1992 345.337 89.6396 346.798C86.3731 355.326 81.5366 354.422 78.8575 346.137C77.463 341.824 77.1517 338.303 76.9768 333.635C70.6668 333.211 66.5785 333.005 60.7427 335.996C49.9624 341.622 40.9967 351.523 33.0456 360.744C25.0292 370.04 17.0147 379.591 5.35263 367.428C0.250642 362.107 2.33977 352.078 4.45181 345.653C6.42718 339.908 7.94577 335.63 12.3938 331.491C11.2409 340.827 5.45496 348.205 6.49798 358.196C6.71213 360.248 7.38741 363.344 9.19055 364.497C17.2953 369.679 26.7598 357.483 31.6936 352.523C35.1144 349.025 38.1467 345.345 41.648 341.903C50.3002 333.397 60.874 325.369 73.1574 323.463C75.6169 323.081 78.4768 323.163 81.0491 322.877C81.6402 321.582 82.0573 320.206 83.1933 319.448C85.0313 319.659 85.8543 323.474 87.6007 325.646C93.0187 332.383 101.379 338.124 109.116 342.066C119.288 347.248 131.909 352.89 142.779 356.353C151.762 359.214 162.939 361.137 172.268 362.999C232.191 374.953 293.445 373.812 354.038 368.736C367.417 367.615 380.088 367.315 393.549 365.002C404.068 363.195 413.941 361.19 424.366 358.866C444.328 354.423 464.113 349.217 483.677 343.258C482.848 353.473 487.593 358.293 497.931 355.324C504.351 353.481 509.857 347.042 512.926 341.284C513.187 344.722 513.693 349.757 516.762 351.854C523.735 356.619 531.745 344.397 534.47 339.619C537.546 347.944 543.709 351.957 552.425 348.685C551.825 344.257 550.777 340.825 549.643 336.562L544.074 316.278C543.15 312.857 541.645 307.544 541.335 304.159C540.96 300.263 541.353 296.332 542.492 292.587Z"/><path fill="#363536" transform="scale(1.19449 1.19449)" d="M337.666 196.493C341.995 199.766 345.711 216.285 346.693 221.639C344.687 220.456 343.248 219.478 341.343 218.125C342.959 236.191 345.541 254.26 346.753 272.369C347.565 284.505 348.774 299.624 346.467 311.559C346.385 313.598 345.373 316.382 344.707 318.309C342.748 303.961 341.857 288.185 340.443 273.682C338.938 259.447 337.552 245.199 336.285 230.94C335.449 222.274 334.232 213.275 334.182 204.559C334.162 200.951 335.402 199.134 337.666 196.493Z"/><path fill="#363536" transform="scale(1.19449 1.19449)" d="M264.045 189.837C265.84 190.454 268.536 192.92 269.946 194.169C281.475 204.391 284.694 221.784 281.935 236.391C281.304 239.732 279.371 244.189 278.152 247.445C278 247.96 277.885 248.07 277.614 248.545L277.296 248.36C277.017 245.808 277.592 241.825 277.716 239.364C278.349 226.837 277.121 212.745 266.532 204.396C265.039 203.219 261.894 200.332 261.711 198.35C261.495 196.007 262.547 191.795 264.045 189.837Z"/><path fill="#363536" transform="scale(1.19449 1.19449)" d="M360.106 199.211C365.397 202.006 371.651 209.213 374.137 214.673C376.448 219.746 377.098 222.046 378.183 227.282C380.551 238.704 378.107 245.447 374.445 256.011C374.181 256.827 374.197 256.897 373.728 257.596L373.456 257.396C373.185 254.371 374.372 248.449 374.095 244.67C372.686 225.446 370.967 221.233 357.387 208.754C357.703 205.31 358.23 202.175 360.106 199.211Z"/><path fill="#363536" transform="scale(1.19449 1.19449)" d="M428.572 216.914C429.237 216.93 428.936 216.825 429.47 217.239C430.364 221.157 426.731 224.192 423.362 225.192C412.629 228.379 401.914 231.804 391.128 234.778C388.97 235.373 386.871 235.548 384.647 235.449C383.737 234.886 383.592 234.789 383.274 233.842C383.567 229.722 395.929 224.622 399.38 223.921C408.776 222.011 419.229 218.255 428.572 216.914Z"/><path fill="#363536" transform="scale(1.19449 1.19449)" d="M62.1464 263.092C64.8647 262.789 75.3421 263.186 76.7491 265.696C77.4602 270.382 66.3576 281.682 61.895 283.185C60.9343 283.509 52.4914 283.567 51.66 282.966C52.1629 282.071 52.2342 282.247 53.2709 281.637C57.8864 279.411 64.125 275.815 68.3692 273.006C60.4387 272.503 57.9128 272.232 50.0618 273.88C51.142 265.586 54.0637 263.672 62.1464 263.092Z"/><path fill="#363536" transform="scale(1.19449 1.19449)" d="M512.152 298.003C514.884 297.724 523.837 298.826 526.722 300.038C527.276 300.271 527.642 301.007 527.637 301.576C527.61 304.575 524.083 308.599 522.218 310.533C512.887 320.204 513.08 318.199 501.278 318.589C502.08 318.06 503.14 317.587 504.018 317.159C505.105 316.404 506.343 315.734 507.519 315.121C511.606 312.991 515.394 310.641 519.203 308.051C515.49 307.824 511.298 307.556 507.589 307.68C505.734 307.741 503.854 308.742 501.544 308.794C499.796 307.75 502.285 302.979 503.33 301.768C505.698 299.024 508.692 298.297 512.152 298.003Z"/><path fill="#363536" transform="scale(1.19449 1.19449)" d="M299.896 192.795L300.276 192.922C301.21 194.022 300.881 198.842 300.905 200.587C300.989 206.89 303.861 211.572 308.783 204.45C309.212 202.05 308.851 195.721 310.106 194.274L310.556 194.444C312.873 198.121 312.161 205.537 315.267 207.966C317.673 209.847 318.877 206.104 318.737 203.792C318.574 201.092 317.02 195.797 318.327 193.342C324.181 197.274 324.552 222.175 310.569 208.05C296.748 224.246 294.951 198.257 299.896 192.795Z"/><path fill="#363536" transform="scale(1.19449 1.19449)" d="M355.363 341.187C356.13 341.226 356.317 341.312 357.046 341.518C357.678 342.271 357.538 341.846 357.464 342.838C355.772 345.709 349.495 347.906 346.493 348.908C346.445 351.962 346.762 357.129 348.636 359.623C350.593 360.354 350.447 358.417 352.179 357.999C353.651 361.271 347.129 366.278 345.683 360.425C344.795 356.833 345.138 352.931 345.379 349.271C341.617 351.396 331.267 355.416 326.702 357.339C321.601 359.459 316.564 361.904 311.313 363.649C310.125 364.043 308.894 364.643 307.934 363.707C307.828 361.825 309.999 360.893 311.556 360.138C318.977 356.544 326.734 353.623 334.256 350.245C339.577 347.855 345.005 345.716 350.287 343.24C351.972 342.451 353.574 341.712 355.363 341.187Z"/><path fill="#363536" transform="scale(1.19449 1.19449)" d="M91.7313 362.265C89.7376 361.552 56.2208 371.558 51.5541 372.24C50.0733 372.457 47.6658 373.731 46.36 372.632C46.1209 371.539 46.2122 371.517 46.5656 370.484C47.6845 369.131 63.2294 365.204 66.4079 364.325C72.9309 362.509 79.4721 360.759 86.0308 359.076C89.1165 358.259 98.1877 355.558 100.747 356.168C101.166 357.148 101.125 356.658 100.886 357.689C99.1888 359.871 95.6276 360.764 93.1388 361.727C92.8715 361.83 92.7162 362.427 92.6298 362.726L92.3664 362.153L91.7313 362.265Z"/><path fill="#363536" transform="scale(1.19449 1.19449)" d="M180.338 204.806C180.72 204.886 180.601 204.915 180.97 205.326C181.071 207.577 179.597 208.742 177.683 209.533C166.028 214.345 153.674 217.544 141.827 221.927C137.052 223.692 132.223 225.406 127.451 227.07C127.278 227.019 126.88 226.797 126.701 226.705C125.447 222.602 135.694 220.403 138.671 219.391L152.873 214.412C160.558 211.719 172.95 206.821 180.338 204.806Z"/><path fill="#363536" transform="scale(1.19449 1.19449)" d="M160.021 218.958C161.868 221.445 159.431 229.947 161.497 233.167C162.707 235.054 164.793 234.854 166.388 233.85C168.906 230.157 168.092 224.249 168.97 219.474L169.06 219C170.368 222.746 171.66 233.851 175.039 235.086C179.02 234.019 176.145 225.085 176.303 221.62L176.326 221.197C177.077 220.771 176.692 220.834 177.512 220.957C180.079 223.498 181.085 235.331 178.406 238.194C175.685 241.102 171.208 236.998 169.5 234.977C157.278 249.892 155.091 226.272 160.021 218.958Z"/><path fill="#363536" transform="scale(1.19449 1.19449)" d="M277.958 253.706C282.271 253.555 282.308 257.586 282.756 260.888C281.759 260.333 279.921 259.19 278.893 259.428C273.696 260.631 276.834 272.321 273.719 276.028C272.85 276.045 272.664 275.371 272.334 274.492C270.16 268.703 269.891 268.67 264.782 265.726C262.916 264.737 259.913 263.408 258.93 261.489C257.233 258.174 259.919 254.517 263.625 256.414C268.026 258.668 271.481 263.972 273.33 268.413C273.221 264.065 274.088 256.329 277.958 253.706Z"/><path fill="#363536" transform="scale(1.19449 1.19449)" d="M455.241 318.033C458.281 318.657 458.507 322.398 458.79 324.894C452.729 322.183 451.999 326.042 451.469 331.44C451.04 335.803 450.955 337.897 449.163 341.874C447.638 335.083 445.912 332.045 439.229 329.048C436.434 327.872 432.003 324.726 435.458 320.834C435.959 320.269 437.73 320.277 438.482 320.515C443.773 322.186 446.878 327.964 449.551 332.422C449.583 326.463 449.523 321.356 455.241 318.033Z"/><path fill="#363536" transform="scale(1.19449 1.19449)" d="M483.699 295.066C487.148 295.036 493.486 297.313 493.566 301.7C493.638 305.612 485.707 303.78 483.319 307.029C479.722 311.925 485.177 319.136 485.966 324.428C486.838 328.919 487.219 329.888 487.4 334.632C487.273 335.699 487.446 335.905 486.861 336.54C485.575 335.703 480.603 315.225 479.742 312.038C478.077 305.877 481.967 303.237 486.423 300.256C484.365 300.34 481.833 300.835 480.402 299.598C479.658 297.472 481.874 295.717 483.699 295.066Z"/><path fill="#363536" transform="scale(1.19449 1.19449)" d="M376.939 261.276C381.13 260.86 380.898 264.701 381.206 267.81C376.027 265.431 374.962 267.411 374.435 272.454C374.196 274.747 373.897 282.323 371.821 283.465C371.186 282.636 370.855 280.272 370.445 279.049C369.221 275.397 366.577 273.756 363.425 272.073C360.918 270.841 357.198 269.306 357.84 266.139C359.105 259.902 365.306 264.914 367.253 267.383C369.532 270.27 370.627 271.789 372.155 274.712C372.2 273.494 372.278 272.278 372.39 271.065C372.808 266.878 373.597 263.985 376.939 261.276Z"/><path fill="#363536" transform="scale(1.19449 1.19449)" d="M520.057 272.43C523.566 272.922 523.381 275.938 523.726 278.879C517.858 275.978 517.534 279.399 517.172 284.408C517.016 286.561 516.73 292.805 514.967 294.14C514.788 294.081 514.609 294.022 514.43 293.963C513.548 291.757 513.39 289.967 511.943 287.975C510.332 285.757 508.987 284.979 506.783 283.524C504.115 281.971 499.99 281.492 500.913 277.383C503.152 267.424 513.047 282.638 514.809 285.396C515.023 280.241 515.429 275.513 520.057 272.43Z"/><path fill="#363536" transform="scale(1.19449 1.19449)" d="M258.437 317.535C259.415 317.449 259.001 317.313 259.775 317.713C260.142 319.964 258.534 320.956 256.595 321.84C252.648 323.641 248.486 325.081 244.447 326.701L218.324 337.223C217.797 337.415 218.074 337.355 217.415 337.182C216.943 336.316 217.019 336.11 217.063 335.139C218.038 333.909 223.236 331.764 224.854 331.166C236.132 326.993 247.243 321.825 258.437 317.535Z"/><path fill="#363536" transform="scale(1.19449 1.19449)" d="M203.831 306.051C204.96 305.982 205.7 305.829 206.706 306.336C206.886 306.573 207.067 306.81 207.247 307.046C206.889 309.992 202.241 317.959 205.735 320.149C208.236 320.499 218.14 314.676 220.996 313.033C219.696 315.059 218.362 316.725 216.885 318.608C213.599 322.141 208.04 324.261 203.35 323.336C196.616 322.008 202.799 313.009 203.361 309.989C201.761 310.253 199.232 311.082 198.344 309.422C199.002 307.389 202.008 306.587 203.831 306.051Z"/><path fill="#363536" transform="scale(1.19449 1.19449)" d="M318.476 307.209C326.459 306.016 318.008 315.811 319.807 320.046C322.743 323.175 333.57 315.452 336.461 313.703C334.963 316.202 333.759 317.781 331.851 319.947C328.763 322.907 319.034 327.567 315.653 322.086C314.248 319.809 317.634 313.867 318.713 311.163C317.017 311.422 314.475 312.228 313.625 310.381C314.217 308.491 316.769 307.716 318.476 307.209Z"/><path fill="#363536" transform="scale(1.19449 1.19449)" d="M260.552 309.008C268.827 311.374 273.412 322.78 271.775 330.626C271.152 333.61 270.356 335.467 269.12 338.219C268.997 338.46 268.811 338.635 268.626 338.851C268.289 338.267 268.745 335.967 268.831 335.195C269.746 326.946 267.932 319.473 260.391 315.021C258.498 313.904 259.18 310.527 260.552 309.008Z"/><path fill="#363536" transform="scale(1.19449 1.19449)" d="M546.504 361.812C547.919 362.235 553.839 366.349 555.845 367.471C554.107 369.9 551.777 373.041 550.424 375.628C547.214 373.517 544.041 371.352 540.906 369.131C542.329 367.009 544.831 364.151 546.504 361.812Z"/><path fill="#363536" transform="scale(1.19449 1.19449)" d="M285.321 312.871C288.236 315.428 291.22 317.905 294.27 320.299C293.524 322.024 291.051 325.831 289.956 327.685C288.346 326.923 283.537 322.446 280.865 320.876C281.917 318.329 283.859 315.289 285.321 312.871Z"/><path fill="#363536" transform="scale(1.19449 1.19449)" d="M389.241 207.456L389.653 207.672L389.797 208.116C390.915 211.375 395.041 212.307 395.106 216.529C395.149 219.3 393.184 221.079 391.08 222.359C381.193 223.781 386.248 211.773 389.241 207.456ZM391.712 218.002C391.021 215.836 390.138 214.932 387.905 214.373C388.173 217.104 388.787 217.944 391.712 218.002Z"/><path fill="#363536" transform="scale(1.19449 1.19449)" d="M467.293 365.795C470.139 367.196 471.038 366.901 474.176 366.227C472.757 370.895 471.82 372.088 466.882 369.709C466.094 370.961 465.129 372.743 463.513 372.868C461.152 373.051 459.447 370.713 456.723 370.54C454.021 370.369 451.235 372.195 449.201 372.296C447.583 371.764 447.097 372.492 445.471 372.722L444.856 372.201C449.322 369.642 454.091 367.651 459.051 366.273C463.068 368.315 464.176 369.846 467.293 365.795Z"/><path fill="#363536" transform="scale(1.19449 1.19449)" d="M169.884 336.818C171.063 337.096 172.223 338.05 173.169 338.827C176.52 341.577 178.619 345.563 178.992 349.881C179.427 354.609 178.099 357.488 175.152 360.956C174.749 361.486 174.917 361.308 174.333 361.671C173.962 361.057 174.479 360.017 174.684 359.342C178.786 345.878 168.349 343.782 168.313 339.483C168.303 338.298 169.093 337.565 169.884 336.818Z"/><path fill="#363536" transform="scale(1.19449 1.19449)" d="M560.689 374.125C561.265 374.274 561.222 374.287 561.763 374.555C562.947 378.734 541.654 384.591 538.454 385.564C538.095 385.504 537.94 385.378 537.595 385.205C537.307 380.561 556.871 374.666 560.689 374.125Z"/><path fill="#363536" transform="scale(1.19449 1.19449)" d="M208.285 197.382C209.301 198.463 206.253 211.092 208.128 213.783C209.359 215.551 210.194 213.544 211.821 213.847C213.028 215.465 211.75 216.806 210.71 218.015C200.116 224.431 207.273 200.659 208.285 197.382Z"/><path fill="#363536" transform="scale(1.19449 1.19449)" d="M310.209 247.08C310.425 247.263 310.661 247.406 310.608 247.771C309.737 253.803 308.947 259.295 310.314 265.356C311.382 264.562 312.931 262.953 314.116 263.901C314.109 265.263 313.136 266.463 312.318 267.511C311.264 268.438 310.577 268.775 309.224 268.864C303.991 266.768 308.963 251.105 310.209 247.08Z"/><path fill="#363536" transform="scale(1.19449 1.19449)" d="M363.076 237.83C362.742 240.498 362.361 243.499 359.817 245.272C359.388 245.571 358.352 245.755 357.914 245.477C353.354 242.576 356.472 232.711 357.747 228.81L357.85 230.584C358.176 230.208 358.491 229.824 358.795 229.43C358.38 231.963 357.789 238.454 359.206 240.502C361.126 241.381 362.139 239.23 363.076 237.83Z"/><defs><linearGradient id="gradient_0" gradientUnits="userSpaceOnUse" x1="42.433868" y1="287.04099" x2="33.665184" y2="296.5936"><stop offset="0" stop-color="#141715" stop-opacity="0.98823529"/><stop offset="1" stop-color="#3F3A3E"/></linearGradient></defs><path fill="url(#gradient_0)" transform="scale(1.19449 1.19449)" d="M38.3924 281.156C39.1412 283.788 36.7061 291.268 37.6235 294.517C38.6941 298.308 40.648 295.699 42.5787 296.035C42.5874 297.369 41.7794 298.441 40.8576 299.317C39.2055 300.428 36.4137 301.515 35.6402 298.765C34.2416 293.792 36.3117 285.818 38.3924 281.156Z"/><defs><linearGradient id="gradient_1" gradientUnits="userSpaceOnUse" x1="491.23804" y1="259.28876" x2="488.0752" y2="273.85019"><stop offset="0" stop-color="#242225"/><stop offset="1" stop-color="#3D3B3C"/></linearGradient></defs><path fill="url(#gradient_1)" transform="scale(1.19449 1.19449)" d="M488.065 259.013C488.334 259.138 488.144 259.07 488.667 259.078L489.588 258.05C488.938 261.162 487.535 267.829 489.183 270.643C490.472 271.391 491.036 270.543 492.125 269.672L492.645 269.637C493.717 271.733 489.918 275.28 487.335 274.33C484.66 271.866 486.563 262.007 488.065 259.013Z"/><defs><linearGradient id="gradient_2" gradientUnits="userSpaceOnUse" x1="102.64548" y1="310.87451" x2="93.899742" y2="321.5155"><stop offset="0" stop-color="#232624" stop-opacity="0.98431373"/><stop offset="1" stop-color="#433F43"/></linearGradient></defs><path fill="url(#gradient_2)" transform="scale(1.19449 1.19449)" d="M98.8466 306.732C99.4293 308.276 97.5065 314.798 97.4539 317.038C97.4072 319.03 97.4078 319.37 97.6476 321.435C99.3064 321.066 100.939 320.451 102.549 319.895C101.758 321.367 101.196 322.594 99.9036 323.653C89.8638 328.871 97.2577 309.573 98.8466 306.732Z"/><path fill="#363536" transform="scale(1.19449 1.19449)" d="M206.814 348.235C207.283 349.124 207.246 349.534 207.331 350.525C206.904 352.635 205.908 357.725 207.512 359.368C208.751 359.665 209.424 359.214 210.672 358.693C211.168 359.401 210.976 359.014 211.032 359.985C209.992 362.707 205.203 364.011 204.049 361.329C202.594 357.945 205.563 351.329 206.814 348.235Z"/><path fill="#363536" transform="scale(1.19449 1.19449)" d="M524.284 321.667C524.079 323.101 523.91 324.54 523.777 325.982C523.129 333.618 526.092 329.839 527.818 329.984C529.177 332.161 525.17 335.152 523.377 334.772C522.755 334.643 522.212 334.266 521.873 333.728C520.306 331.285 521.992 324.756 522.62 322.079L522.955 322.863L523.361 322.962L524.284 321.667Z"/><path fill="#363536" transform="scale(1.19449 1.19449)" d="M448.118 295.687L448.478 295.909L448.827 295.675L449.79 295.888C448.842 307.162 452.35 301.17 454.257 301.729C454.655 303.85 451.551 306.751 449.467 306.944C445.909 305.734 447.294 298.486 448.118 295.687Z"/><defs><linearGradient id="gradient_3" gradientUnits="userSpaceOnUse" x1="65.771767" y1="345.31369" x2="58.315964" y2="352.31589"><stop offset="0" stop-color="#131616" stop-opacity="0.98431373"/><stop offset="1" stop-color="#363336"/></linearGradient></defs><path fill="url(#gradient_3)" transform="scale(1.19449 1.19449)" d="M61.9639 340.217C63.0353 342.176 60.9082 349.162 61.9394 351.791C63.06 354.649 65.6343 352.684 67.109 351.846C66.5162 353.259 66.0888 354.506 65.0799 355.674C63.9203 356.584 63.2539 357.034 61.7865 356.906C57.8818 355.05 60.6629 343.125 61.9639 340.217Z"/><path fill="#363536" transform="scale(1.19449 1.19449)" d="M18.5474 352.962C18.7656 350.437 19.5468 345.875 18.1939 343.96C16.3649 343.23 16.517 344.411 14.8262 343.603C14.6765 343.187 14.4533 342.963 14.7208 342.614C16.6829 340.053 21.4927 339.482 21.6106 343.811C21.7025 347.185 20.6587 350.24 19.5549 353.31L18.5474 352.962Z"/><path fill="#363536" transform="scale(1.19449 1.19449)" d="M287.668 366.154C287.41 364.092 287.289 361.026 286.111 359.471C284.447 359.308 283.372 360.052 282.145 359.643C281.321 357.012 292.858 349.969 288.486 369.269C287.96 368.66 287.818 367.031 287.668 366.154Z"/><path fill="#111412" transform="scale(1.19449 1.19449)" d="M91.7313 362.265L92.3664 362.153L92.6298 362.726C92.3356 365.399 92.9346 367.669 93.4124 370.309C94.8475 369.096 95.6644 368.705 97.3125 367.806C96.3338 369.718 95.5564 372.137 93.0984 372.147C90.0111 370.698 91.1652 364.977 91.7313 362.265Z"/><path fill="#111412" fill-opacity="0.98823529" transform="scale(1.19449 1.19449)" d="M451.738 285.488C451.096 288.827 450.297 292.561 449.79 295.888L448.827 295.675L448.478 295.909L448.118 295.687C449.012 292.4 449.873 289.07 451.451 286.045L451.628 285.696C451.665 285.627 451.702 285.558 451.738 285.488Z"/><path fill="#111412" fill-opacity="0.98823529" transform="scale(1.19449 1.19449)" d="M522.62 322.079C523.246 319.922 524.205 316.474 525.394 314.596C525.879 315.794 524.538 320.012 524.284 321.667L523.361 322.962L522.955 322.863L522.62 322.079Z"/><path fill="#524F50" transform="scale(1.19449 1.19449)" d="M444.856 372.201L445.471 372.722C447.097 372.492 447.583 371.764 449.201 372.296C446.364 373.509 441.468 374.79 438.45 375.272C440.56 374.264 442.726 373.106 444.856 372.201Z"/><path fill="#111412" transform="scale(1.19449 1.19449)" d="M359.493 222.5C359.576 225.152 359.424 226.825 358.795 229.43C358.491 229.824 358.176 230.208 357.85 230.584L357.747 228.81C358.325 226.736 358.963 224.578 359.493 222.5Z"/><path fill="#111412" fill-opacity="0.98431373" transform="scale(1.19449 1.19449)" d="M488.065 259.013C488.375 257.892 488.791 255.838 489.724 255.254C489.991 256.17 489.742 257.088 489.588 258.05L488.667 259.078C488.144 259.07 488.334 259.138 488.065 259.013Z"/><path fill="#2E3636" fill-opacity="0.95686275" transform="scale(1.19449 1.19449)" d="M287.668 366.154C287.818 367.031 287.96 368.66 288.486 369.269L288.394 370.902L288.043 371.218L288.17 371.561L287.87 371.318C287.39 369.406 287.562 368.12 287.668 366.154Z"/><path fill="#524F50" fill-opacity="0.97254902" transform="scale(1.19449 1.19449)" d="M228.405 324.756C229.114 325.521 228.704 325.307 229.59 325.566C229.433 327.206 229.218 327.934 228.794 329.487C228.539 327.71 228.479 326.54 228.405 324.756Z"/><path fill="#2E3636" fill-opacity="0.96470588" transform="scale(1.19449 1.19449)" d="M207.826 346.372L208.113 346.406C207.902 347.925 207.586 349.068 207.331 350.525C207.246 349.534 207.283 349.124 206.814 348.235C207.135 347.182 207.124 347.234 207.826 346.372Z"/><path fill="#111412" fill-opacity="0.96470588" transform="scale(1.19449 1.19449)" d="M18.5474 352.962L19.5549 353.31C19.2722 354.19 19.1793 354.804 18.5176 355.437C18.1441 354.548 18.4026 354.093 18.5474 352.962Z"/></svg>