<?xml version="1.0" encoding="utf-8" ?><svg xmlns="http://www.w3.org/2000/svg" xmlns:xlink="http://www.w3.org/1999/xlink" width="2896" height="4096" viewBox="0 0 2896 4096"><path fill="#817E7F" transform="scale(0.999973 1)" d="M1390.22 650.397C1399.76 619.245 1405.98 580.098 1412.22 547.365C1414.19 537.049 1415.21 520.661 1417.78 513.477C1420.27 520.155 1428.76 544.618 1431.73 548.622C1431.48 566.238 1433.9 589.212 1439.89 604.659C1447.66 647.823 1453.31 693.575 1461.42 735.847C1484.56 856.541 1490.87 978.185 1501.19 1101.73C1503.15 1125.17 1501.09 1151.13 1503.77 1174.75C1508.85 1155.17 1510.18 1141.97 1513.44 1122.46C1531.17 1016.41 1524.46 906.065 1527.68 797.825C1527.94 789.067 1525.5 772.464 1523.67 764.096L1526.52 763.812C1528.79 768.745 1531.88 775.586 1532.32 781.552C1544.43 814.915 1549.34 837.732 1555.34 874.621C1557.49 865.242 1557.01 853.659 1557.1 843.531C1566.64 896.607 1572.14 988.232 1563.39 1040.9C1557.98 1073.47 1540.58 1125.79 1531.88 1158.93C1526.19 1180.6 1511.69 1216.91 1507.04 1237.2C1502.28 1257.94 1499.65 1298.08 1496.2 1322.07C1491.81 1352.51 1485.61 1369.16 1480.41 1395.62L1471.52 1400.36C1480.84 1358.69 1492.89 1287.81 1493.93 1242.47C1494.16 1232.62 1465.29 1170.8 1465.2 1156.19C1458.21 1141.92 1450.51 1128.37 1442.17 1115.63C1433.04 1107.69 1409.16 1069.27 1401.13 1056.31C1375.11 1014.34 1347.28 933.149 1345.13 877.467C1342.21 833.329 1356.62 752.609 1368.68 711.6C1372.99 692.664 1382.99 668.704 1390.06 651.364L1390.22 650.397Z"/><path fill="#FDFBFC" transform="scale(0.999973 1)" d="M1345.13 877.467C1342.21 833.329 1356.62 752.609 1368.68 711.6C1370.81 722.867 1364.73 731.678 1366.41 735.936C1373.66 754.311 1387.42 768.041 1395.88 785.864C1409.96 809.929 1447.95 881.262 1452.75 908.552C1449.1 907.823 1450.78 908.579 1447.68 906.436C1456.95 934.273 1465.57 960.889 1471.49 990.604C1472.57 996.055 1476.23 1014.33 1478.91 1017.59L1479.13 1008.78L1480.97 1007.73C1483.4 1011.97 1492.86 1089.83 1494.71 1101.9C1496.33 1112.44 1492.62 1189.36 1498.74 1191.86C1499.9 1183.92 1499.65 1178.29 1499.67 1170.14L1500.99 1169.37C1504.07 1178.31 1498.7 1215.63 1495.67 1224.66L1493.64 1225.05C1485.46 1211.35 1480.7 1178.73 1465.2 1156.19C1458.21 1141.92 1450.51 1128.37 1442.17 1115.63C1433.04 1107.69 1409.16 1069.27 1401.13 1056.31C1375.11 1014.34 1347.28 933.149 1345.13 877.467Z"/><path fill="#555254" transform="scale(0.999973 1)" d="M1345.13 877.467C1342.21 833.329 1356.62 752.609 1368.68 711.6C1370.81 722.867 1364.73 731.678 1366.41 735.936C1373.66 754.311 1387.42 768.041 1395.88 785.864C1381.3 773.491 1376.77 756.784 1365.29 743.62L1363.44 744.022L1362.97 747.513C1365.71 753.606 1366.05 753.826 1370.17 758.437L1371.24 759.61C1372.43 764.717 1371.67 764.148 1369.96 770.559L1363.2 766.627L1362.75 755.089C1356.45 760.594 1362.08 791.115 1360.08 803.652L1363.69 809.746L1364.72 824.035C1366.18 845.002 1393.43 911.408 1402.25 931.538C1401.9 938.053 1402.92 935.795 1400.32 939.535C1393.17 939.393 1382.08 922.392 1379.29 914.134L1375.45 909.108L1373.66 910.69C1372.34 923.204 1381.68 959.295 1387.48 968.528C1391.47 980.157 1398.17 999.167 1403.48 1009.7C1405.73 1014.81 1407.99 1018.32 1407.71 1024.07C1405.03 1024.46 1403.41 1024.81 1400.78 1025.86C1399.96 1034.81 1410.36 1054.37 1412.42 1065.4C1418.4 1074.86 1438.93 1106.18 1442.17 1115.63C1433.04 1107.69 1409.16 1069.27 1401.13 1056.31C1375.11 1014.34 1347.28 933.149 1345.13 877.467Z"/><path fill="#686467" transform="scale(0.999973 1)" d="M1345.13 877.467C1352.76 888.002 1349.48 905.43 1353.8 915.857L1356.17 914.89C1356.88 908.655 1356.8 907.335 1356.74 901.208L1357.05 903.935C1358.96 919.759 1361.62 931.012 1368.09 944.411L1367.8 943.079L1370.65 947.24L1372 946.366C1373.08 928.519 1367.13 904.957 1369.25 890.537C1373.95 893.327 1377.56 907.173 1379.29 914.134L1375.45 909.108L1373.66 910.69C1372.34 923.204 1381.68 959.295 1387.48 968.528C1391.47 980.157 1398.17 999.167 1403.48 1009.7C1405.73 1014.81 1407.99 1018.32 1407.71 1024.07C1405.03 1024.46 1403.41 1024.81 1400.78 1025.86C1399.96 1034.81 1410.36 1054.37 1412.42 1065.4C1418.4 1074.86 1438.93 1106.18 1442.17 1115.63C1433.04 1107.69 1409.16 1069.27 1401.13 1056.31C1375.11 1014.34 1347.28 933.149 1345.13 877.467Z"/><path fill="#D9D7D9" transform="scale(0.999973 1)" d="M1412.42 1065.4C1394.69 1043.46 1381 1000.89 1374.16 969.545L1375.05 968.873C1384.11 980.138 1394.87 1008.1 1401.41 1013.02L1403.48 1009.7C1405.73 1014.81 1407.99 1018.32 1407.71 1024.07C1405.03 1024.46 1403.41 1024.81 1400.78 1025.86C1399.96 1034.81 1410.36 1054.37 1412.42 1065.4Z"/><path fill="#292627" transform="scale(0.999973 1)" d="M1363.69 809.746C1361.88 823.313 1359.32 842.189 1354.11 853.089L1352.74 853.03C1348.33 833.854 1352.54 815.66 1355.13 795.512L1357.96 795.099C1358.17 800.019 1357.99 799.77 1360.08 803.652L1363.69 809.746Z"/><path fill="#A2A0A1" transform="scale(0.999973 1)" d="M1387.48 968.528C1381.68 959.295 1372.34 923.204 1373.66 910.69L1375.45 909.108L1379.29 914.134C1382.08 922.392 1393.17 939.393 1400.32 939.535C1402.92 935.795 1401.9 938.053 1402.25 931.538C1418.74 958.87 1478.38 1094.95 1478.91 1124.03L1477.38 1124.78C1464.84 1094.81 1449.5 1055.49 1433.65 1029.46C1418.32 1004.29 1406.84 992.321 1392.64 964.123L1390.29 964.059L1387.48 968.528Z"/><path fill="#3A3739" transform="scale(0.999973 1)" d="M1369.96 770.559C1371.67 764.148 1372.43 764.717 1371.24 759.61L1370.17 758.437C1366.05 753.826 1365.71 753.606 1362.97 747.513L1363.44 744.022L1365.29 743.62C1376.77 756.784 1381.3 773.491 1395.88 785.864C1409.96 809.929 1447.95 881.262 1452.75 908.552C1449.1 907.823 1450.78 908.579 1447.68 906.436C1426.6 856.024 1400.41 810.247 1369.96 770.559Z"/><path fill="#FDFBFC" transform="scale(0.999973 1)" d="M1390.22 650.397C1399.76 619.245 1405.98 580.098 1412.22 547.365C1414.19 537.049 1415.21 520.661 1417.78 513.477C1420.27 520.155 1428.76 544.618 1431.73 548.622L1428.85 547.526C1423.92 559.86 1432.46 600.773 1434.83 613.824C1436.75 624.374 1439.88 628.911 1435.39 639.27C1438.32 670.891 1448.46 711.033 1452.98 744.792C1446.41 724.868 1423.17 654.267 1413.04 640.461L1414.3 641.275L1413.67 644.173C1419.09 660.74 1439.58 733.85 1439.18 746.886L1436.66 749.329C1422.08 716.818 1403.53 693.643 1390.14 662.066C1389.21 659.866 1389.83 653.938 1390.06 651.364L1390.22 650.397Z"/><path fill="#FDFBFC" transform="scale(0.999973 1)" d="M1543.02 994.351C1537.97 924.056 1536.15 856.044 1529.6 783.283L1532.32 781.552C1544.43 814.915 1549.34 837.732 1555.34 874.621C1556.4 893.349 1559.08 908.148 1559.93 929.515C1553.65 946.504 1547.59 975.306 1543.02 994.351Z"/><path fill="#FDFBFC" transform="scale(0.999973 1)" d="M1371.75 721.356C1376.41 701.506 1381.79 681.872 1387 662.287C1406.4 715.378 1426.07 758.184 1445.98 809.839C1448.19 800.763 1445.45 797.86 1448.19 789.906L1450.2 790.416C1453.64 798.704 1452.38 808.471 1456.56 813.048C1459.37 816.126 1462.28 816.359 1465.8 820.814C1467.69 829.41 1475.69 862.363 1474.86 870.535C1473.87 880.184 1471.08 880.276 1471.87 896.122C1474.5 909.53 1486.58 977.088 1485.64 987.374C1476.52 985.583 1472.21 956.143 1468.67 944.493C1450.5 884.657 1400.93 769.324 1371.75 721.356Z"/><path fill="#413E3F" transform="scale(0.999973 1)" d="M1445.98 809.839C1448.19 800.763 1445.45 797.86 1448.19 789.906L1450.2 790.416C1453.64 798.704 1452.38 808.471 1456.56 813.048C1459.37 816.126 1462.28 816.359 1465.8 820.814C1467.69 829.41 1475.69 862.363 1474.86 870.535C1473.87 880.184 1471.08 880.276 1471.87 896.122C1466.22 868.145 1455.07 836.101 1445.98 809.839Z"/><path fill="#EFEFEE" transform="scale(0.999973 1)" d="M1549.72 985.033C1549.52 976.531 1559.38 939.395 1562.01 929.683C1561.74 948.434 1561.54 963.856 1560.14 982.609C1557.68 995.68 1556.47 1007.52 1549.31 1016.05L1546.76 1015.74C1544.17 1005.89 1544.87 999.881 1547.82 990.75C1548.43 988.831 1549.06 986.925 1549.72 985.033Z"/><path fill="#D9D7D9" transform="scale(0.999973 1)" d="M1549.72 985.033C1550.8 994.332 1549.18 991.242 1553.32 995.963L1551.45 996.317L1552.77 998.648C1554.8 992.524 1556.07 986.37 1560.14 982.609C1557.68 995.68 1556.47 1007.52 1549.31 1016.05L1546.76 1015.74C1544.17 1005.89 1544.87 999.881 1547.82 990.75C1548.43 988.831 1549.06 986.925 1549.72 985.033Z"/><path fill="#292627" fill-opacity="0.87058824" transform="scale(0.999973 1)" d="M1480.41 1395.62C1476.14 1417.49 1459.44 1464.19 1452.71 1486.23C1437.59 1536.1 1422.46 1584.65 1404.78 1632.89C1372.72 1720.41 1333.48 1802.66 1301.47 1890.01C1295.19 1907.15 1279.16 1938.24 1275.67 1954.8C1276.75 1961.2 1276.72 1963.83 1280.13 1968.29C1284.08 1964.31 1294.77 1938.11 1298.67 1930.84C1333.31 1866.25 1374.86 1790.69 1416.05 1735.55C1476.66 1654.42 1544.01 1576.05 1614.66 1513.51C1703.84 1434.58 1789.71 1348.63 1873.25 1258.26C1903.45 1225.72 1932.26 1187.09 1960.87 1151.7C1963.42 1157.81 1963.52 1160.46 1967.26 1163.42C1923.52 1218.84 1890.96 1252.41 1844.68 1300.95C1792.42 1355.95 1739.45 1409.56 1685.78 1461.77C1649.46 1497.1 1610.38 1530.96 1574.74 1567.51C1469.72 1675.19 1350.63 1826.73 1284.63 1985.94C1282.77 1992.89 1283.02 1992.71 1278.83 1997.91C1261.05 2040.08 1224.38 2126.83 1213.62 2173.43C1193.91 2258.84 1182.51 2378.66 1181.62 2468.66C1181.48 2483.27 1179.26 2509.16 1179.98 2521.86C1183.4 2582.3 1187.13 2652.33 1198.73 2710.71C1211.6 2775.44 1226.86 2847.06 1242.53 2910.22C1261.9 2796.67 1303.38 2668.98 1331.25 2556.18L1337.46 2545.03L1339.18 2544.99C1339.77 2551.42 1339.87 2551.62 1339.34 2558C1319.31 2633.66 1302.89 2714.66 1280.55 2789.76C1272.89 2798.53 1252.47 2907.67 1245.84 2928.9C1242.42 2939.85 1275.26 3043.44 1270.26 3060.64C1261.53 3039.04 1261.67 3029.8 1255.87 3010.68C1233.22 2935.98 1222.32 2852.84 1203.21 2777.57C1177.69 2677.04 1176.08 2589.89 1171.02 2486.74C1172.27 2466.54 1171.67 2445.92 1173 2426.77C1178.55 2346.61 1189.5 2243.11 1207.11 2167.48C1219.9 2112.57 1253.15 2030.18 1274.69 1982.28C1215.68 1826.32 1128.17 1616.81 1143.6 1435.74C1145.13 1417.8 1147.61 1397.01 1151.93 1379.96C1153.42 1374.07 1156.34 1369.45 1158.4 1364.01C1166.38 1342.98 1171.02 1323.67 1185.24 1308.52C1194.08 1299.11 1204.35 1295.23 1215.31 1298.14C1220.11 1299.41 1222.23 1301.84 1225.05 1307.31C1226.84 1326.28 1210.64 1343.99 1204.09 1360.74C1190.14 1396.42 1169.23 1436.77 1162.37 1476.68C1158.58 1508.62 1156.54 1554.94 1162 1586.66C1179.28 1687.21 1210.57 1784.51 1244.71 1875.71C1254.21 1901.08 1261.83 1926.94 1271.97 1950.26L1272.9 1952.35L1274.77 1944.97C1290.01 1884.03 1334.8 1790.17 1358.52 1730.47C1369.69 1702.39 1388.41 1651.37 1399.6 1625.89C1414.55 1603.34 1455.58 1438.62 1471.52 1400.36L1480.41 1395.62Z"/><path fill="#FDFBFC" transform="scale(0.999973 1)" d="M1204.63 1303.91C1210.07 1303.77 1212.72 1303.28 1217.21 1307.61C1222.51 1324.99 1196.6 1347.15 1188.42 1364.51C1180.28 1381.8 1179.56 1379.96 1174.45 1401.24C1172.21 1404.07 1173.54 1403.08 1170.37 1403.98L1169.09 1400.25C1170.38 1380.39 1171.86 1371.73 1174.93 1353.39C1172.7 1355.9 1174.07 1354.99 1170.65 1355.46C1169.12 1344.92 1175.98 1335.48 1180.59 1327.94C1188.98 1314.19 1192.36 1309.57 1204.63 1303.91Z"/><path fill="#292627" fill-opacity="0.93333334" transform="scale(0.999973 1)" d="M1097.4 2928.9L1094.59 2921.61L1096.03 2920.15C1102.98 2923.14 1112.18 2931.53 1116.99 2931.15C1157.81 2966.68 1225.66 3030.54 1256.6 3081.56C1253.85 3088.08 1255.7 3085.56 1250.63 3089.02C1254 3100.95 1266.63 3103.68 1266.61 3118.66L1263.7 3121.9L1262.67 3120.33C1254.58 3107.92 1244.1 3082.86 1235.03 3080.9L1232.13 3083.42C1229.78 3104.51 1308.82 3219.47 1322.27 3243.2C1328.11 3252.27 1333.45 3260.56 1340.25 3268.29C1348.17 3285.84 1345.39 3307.47 1350.37 3317.22C1379.9 3374.95 1410.68 3431.02 1434.38 3494.38C1441.19 3512.59 1447.46 3533.03 1454.72 3550.54C1454.32 3561.56 1455.64 3561.01 1451.73 3567.94C1445.45 3550.88 1439.11 3533.87 1432.68 3516.92C1414.03 3468.26 1365.26 3355.03 1333.76 3324.88C1300.13 3292.68 1228.69 3261.25 1189.42 3244.87C1184.28 3239.56 1180.09 3237.93 1175.7 3231.18C1181.83 3230.82 1188.45 3234.59 1195.19 3235.31L1196.57 3234.33C1199.28 3228.09 1201.83 3228.79 1205 3222.07L1202.73 3219.25C1191.82 3220.76 1159.99 3197.56 1147.47 3190.58L1147.78 3188.05L1147.71 3189.55C1151.13 3188.4 1151.22 3189.37 1152.79 3186.73C1148.71 3180.93 1147.21 3180.74 1141.61 3177.73L1141.7 3176.52L1143.14 3174.97C1146.56 3176.1 1148.11 3176.67 1151.64 3177.02L1154.1 3177.24C1164.92 3185.05 1190.5 3194.07 1203.76 3201.15C1228.63 3214.42 1257.45 3235.72 1279.35 3254.69C1291.05 3264.83 1335.27 3310.22 1342.09 3310.92C1342.55 3309.31 1342.89 3308.45 1343 3306.59C1344.71 3279.83 1243.94 3145.4 1225.77 3119.56C1222.18 3107.25 1217.32 3104.62 1217.77 3092.29C1212.8 3082.75 1191.88 3048.63 1185.73 3043.2C1176.3 3030.78 1160.21 3005.46 1150.47 2991.33C1132.82 2969.26 1116.68 2948.41 1097.4 2928.9Z"/><path fill="#FDFBFC" fill-opacity="0.0078431377" transform="scale(0.999973 1)" d="M843.22 2830.31C847.801 2821.06 853.219 2821.83 859.937 2823.03L868.149 2827.93C873.6 2832.22 880.72 2838.22 886.285 2841.64L896.331 2848.93C903.844 2856.41 912.671 2862.9 920.74 2869.25C917.699 2876.96 918.658 2875.91 912.042 2878.02L906.987 2875.33L906.039 2876.74C910.601 2885.43 935.099 2900.73 942.918 2905.78C956.712 2914.81 1015.26 2953.02 1025.59 2965.05C1027.9 2967.91 1031.45 2972.04 1033.5 2974.99C1029.39 2975.05 1025.7 2973.84 1021.65 2972.76C1012.33 2965.68 997.681 2957.07 987.805 2950.77C987.391 2950.52 986.977 2950.28 986.563 2950.03C977.216 2938.31 956.489 2928.09 943.701 2921.61C937.647 2915.26 912.061 2904.37 905.497 2907.56C909.641 2913.7 917.943 2916.68 923.856 2918.64C926.461 2921.14 938.106 2931.72 939.21 2934.23C935.839 2936.17 932.609 2938.02 929.287 2940.15L928.67 2944.12C931.708 2950.14 944.188 2956.09 950.007 2960.67L948.729 2963.95L942.373 2965.36C934.595 2960.82 929.799 2958.05 921.54 2956.03L921.012 2957.58C931.587 2967.6 963.681 2984.17 977.132 2990.43C982.154 2992.93 992.642 2998.71 997.382 2999.64C1014.63 3007.86 1033.42 3020.5 1049.04 3027.58C1071.2 3038.28 1101.37 3060.73 1123.01 3075.52C1117.87 3083.36 1121.82 3085.89 1114.79 3096.14C1092.31 3083.62 1069.35 3072.86 1046.03 3063.9C1029.52 3057.73 1010.86 3052.51 994.76 3045.78C977.221 3038.46 959.652 3026.17 941.496 3018.73L937.895 3016.6C917.246 2991.64 899.252 2950.53 884.019 2918.34C880.424 2910.57 878.014 2904.35 874.906 2896.27C868.616 2879.27 851.716 2846.15 843.22 2830.31Z"/><path fill="#FDFBFC" fill-opacity="0.0078431377" transform="scale(0.999973 1)" d="M1659.34 2352.62C1657.81 2362.81 1657.5 2358.65 1660.53 2368.21C1656.64 2371.1 1656.06 2370.22 1651.31 2370.24C1647.81 2376.55 1651.25 2384.73 1654.71 2389.65C1656.39 2392.04 1663.53 2389.81 1666.47 2389.59C1613.81 2445.41 1537.61 2486.18 1485.66 2541.64C1475.61 2553.18 1460.51 2569.05 1455.37 2585.63C1453.58 2603.63 1440.41 2601.85 1431.14 2615.84L1430.96 2619.7C1433.78 2623.1 1435.63 2622.48 1439.47 2622.8C1431.84 2629.41 1420.07 2638.94 1413.08 2645.99C1409.61 2644.59 1409.41 2643.44 1406.76 2639.72C1418.82 2616.69 1436.5 2580.61 1447.79 2556.95C1461.46 2532.6 1474.5 2514.63 1490.36 2493.31C1500.8 2483.81 1513.22 2466.55 1524 2455.98C1545.29 2435.1 1567.19 2413.63 1589.04 2394.06C1592.38 2392.61 1605.99 2383.19 1609.91 2380.59C1627.02 2369.22 1641.1 2360.1 1659.34 2352.62Z"/><path fill="#292627" fill-opacity="0.93725491" transform="scale(0.999973 1)" d="M2361.16 406.322C2364.69 412.218 2363.58 411.605 2364.39 420.866C2358.44 441.249 2353.49 462.451 2347.03 482.78C2286.54 673.107 2193.48 847.76 2091.36 997.103C2051.89 1054.82 2008.66 1110.61 1967.26 1163.42C1963.52 1160.46 1963.42 1157.81 1960.87 1151.7C1972.85 1134.65 1987.27 1118.97 1999.54 1101.94C2138.56 909.093 2293.09 668.712 2361.16 406.322Z"/><path fill="#413E3F" fill-opacity="0.92941177" transform="scale(0.999973 1)" d="M1433.14 2494.59C1436.37 2484.96 1438.65 2469.94 1442.04 2461.63C1455.38 2428.95 1462.25 2385.18 1474.06 2353.16C1479.58 2373.29 1465.06 2398.73 1466.25 2424.42C1462.65 2435.92 1458.81 2447.48 1454.69 2458.62C1442.4 2491.84 1435.84 2526.44 1424.98 2560.85C1420.84 2573.98 1419.71 2584.35 1416.58 2597.24C1413.65 2603.26 1397.64 2652.7 1396.16 2659.5C1391.51 2663.51 1392.85 2660.8 1391.21 2666.99C1391.94 2671.67 1392.89 2674.82 1392.28 2679.2C1360.51 2718.69 1327.06 2905.6 1324.78 2969.01C1324.31 2982.07 1326.73 3008.03 1322.28 3018.57L1321.45 3017.91C1321.43 3001.55 1321.94 2993.31 1319.14 2977.57L1318.74 2975.44C1318.51 2967.34 1322.27 2941.63 1323.23 2932.05C1328.27 2881.32 1335.2 2824.73 1347.66 2776.4C1356.82 2743.81 1370.82 2711.33 1377.49 2677.59C1383.59 2646.68 1384.82 2612.86 1387.26 2580.86C1393.13 2503.95 1402.71 2439.76 1434.8 2374.96C1436.54 2384.23 1435.74 2387.74 1434.91 2397.55C1416.78 2422.54 1399.02 2500.45 1403.08 2534.34L1404.89 2535.38L1406.43 2534.38C1407.99 2541.16 1395.14 2599.73 1398.97 2616.76C1407.01 2609.35 1425.46 2515.64 1432.61 2498.23C1432.68 2497.63 1432.76 2497.02 1432.84 2496.41L1433.14 2494.59Z"/><path fill="#413E3F" fill-opacity="0.95294118" transform="scale(0.999973 1)" d="M1624.03 2234.51C1630.6 2226.57 1631.73 2222.89 1634.35 2211.21L1636.06 2212.1L1635.63 2211.65C1637.39 2222.16 1632.16 2234.77 1632.65 2248.05C1627.7 2259.83 1623.12 2268.71 1617.44 2279.78C1611.35 2288.69 1584.18 2336.17 1584.02 2346.02C1585.31 2359.62 1582.22 2360.44 1579.92 2373.59C1571.14 2383.92 1561.43 2394.01 1553.17 2404.81C1547.57 2410.32 1541.53 2418.05 1537.93 2426.25C1533 2427.92 1493.11 2485.41 1490.36 2493.31C1474.5 2514.63 1461.46 2532.6 1447.79 2556.95L1439.62 2557.11C1470.63 2492.33 1512.87 2405.43 1538.55 2337.74L1544.29 2332.87C1546.46 2335.31 1545.87 2333.77 1546.3 2337.31C1536.75 2363.32 1523.93 2400.43 1515.86 2427.07C1527.17 2413.14 1576.16 2338.67 1582.22 2321.76C1589.49 2300.4 1613.48 2266.12 1624.03 2234.51Z"/><path fill="#3A3739" fill-opacity="0.85882354" transform="scale(0.999973 1)" d="M1840.97 2107.23L1841.77 2110.55C1838.26 2116.92 1834.27 2122.5 1833.54 2130.29C1835.1 2135.31 1836.11 2137.65 1840.77 2138.11C1838.12 2141.78 1839.64 2140.38 1835.8 2141.45C1843.04 2148.95 1871.77 2141.36 1881.13 2139.33C1897.83 2135.71 1914.37 2130.81 1930.69 2124.64C1942.15 2120.16 1963.08 2108.89 1974.1 2111.68C1952.57 2123.04 1892.88 2150.11 1869.69 2155.41C1853.31 2157.89 1838.48 2161.06 1821.77 2163.08C1793.79 2172.19 1750.2 2166.34 1734.6 2173.24L1728.26 2171.91C1721.62 2166.43 1689.79 2174.99 1681.44 2177.89L1679.94 2179.81C1672.75 2181.93 1665.23 2184.3 1658.04 2186.23C1652.02 2212.15 1643.65 2226.01 1632.65 2248.05C1632.16 2234.77 1637.39 2222.16 1635.63 2211.65L1636.06 2212.1L1634.35 2211.21C1631.73 2222.89 1630.6 2226.57 1624.03 2234.51C1628.85 2218.42 1631.1 2211.12 1633.62 2193.78C1611.08 2204 1589.6 2216.29 1569.6 2234.72C1562.59 2241.18 1554.88 2252.08 1548.56 2257.51C1550.41 2245.85 1556.38 2246.65 1553.87 2234.75C1555.51 2231.46 1572.83 2221.22 1576.81 2218.06C1625.43 2179.4 1682.66 2171.77 1736.93 2161.34C1748.76 2157.49 1762.33 2162.83 1773.64 2158.26C1798.91 2148.05 1818.36 2124.96 1840.97 2107.23Z"/><path fill="#292627" fill-opacity="0.95686275" transform="scale(0.999973 1)" d="M1711.04 2344.74L1714.45 2345.67C1713.72 2358.17 1702.61 2357.49 1703.08 2382.61C1697.54 2394.74 1695.15 2397.92 1688.02 2408.12L1680.6 2407.66L1680.18 2403.26C1674.24 2402 1656.57 2414.67 1652.69 2422.79L1652.75 2428.01C1656.69 2431.51 1654.44 2430.38 1660.12 2429.58C1656.24 2434.66 1654.56 2435.58 1652.58 2442.04C1658.04 2439.93 1660.18 2439.15 1665.28 2435.88C1668.24 2438.88 1667.42 2437.37 1669.13 2441.66C1649.67 2470.9 1632.7 2486.8 1609.44 2508.86L1601.57 2509.27C1609.67 2494.54 1631.7 2485.3 1634.9 2466.82L1633.19 2463.54L1628.66 2463.34C1623.62 2467.29 1625.23 2464.8 1623.24 2474.38C1620.07 2479.33 1616.65 2480.14 1612.1 2482.31C1610.58 2476.46 1626.09 2466.39 1627.69 2448.17L1625.69 2446.37C1618.67 2450.6 1578.37 2481.64 1578.83 2490.87C1558.59 2490.7 1499.09 2549.29 1478.98 2564.98L1476.09 2563.14C1477.52 2557.39 1484.78 2549.46 1488.58 2544.36C1535.93 2498.27 1586.25 2464.82 1635.6 2423.73C1662.47 2401.35 1686.48 2372.01 1711.04 2344.74Z"/><path fill="#D9D7D9" fill-opacity="0.039215688" transform="scale(0.999973 1)" d="M1123.01 3075.52L1149.78 3095.55C1165.16 3106.84 1187.17 3122.09 1200.46 3136.81C1212.74 3151.83 1226.1 3165.85 1238.17 3180.88C1242.06 3186.35 1257.13 3205.66 1261.66 3209.95C1271.92 3224.68 1285.25 3238.11 1296 3253.12C1298.84 3259.1 1311.6 3273.59 1316.52 3277.34C1316.32 3266.73 1299.99 3244.8 1294.19 3236.93C1282.4 3225.49 1266.65 3197.69 1253.26 3184.64C1247.1 3177.85 1243.88 3174.01 1238.23 3166.29C1244.33 3162.54 1243.1 3161.17 1243.88 3152.63C1276.28 3199.99 1321.28 3250.76 1342.91 3308.96C1324.81 3292.62 1306.8 3276.09 1288.88 3259.37C1286.4 3257.08 1269.38 3241.54 1268.03 3239.59C1270.2 3237.12 1269.51 3238.69 1270.16 3234.94C1263.85 3217.02 1211.26 3179.66 1199.06 3167.24C1207 3169.44 1223.38 3182.41 1234.5 3187.67C1206.47 3155.35 1148.07 3116.61 1114.79 3096.14C1121.82 3085.89 1117.87 3083.36 1123.01 3075.52Z"/><path fill="#292627" fill-opacity="0.96470588" transform="scale(0.999973 1)" d="M973.201 2894.55C1016.63 2929.96 1051.82 2960.17 1092.4 3001.88C1108.99 3017.56 1122.06 3033.96 1137.73 3049.29C1145.37 3059.67 1156.93 3069.22 1161.87 3077.7C1151.81 3072.94 1137.53 3067.88 1129.79 3058.85C1127.82 3056.56 1127.07 3056.43 1124.61 3055.74L1122.98 3056.98C1130.62 3067.08 1142.56 3076.31 1149.46 3087.47C1149.57 3090.16 1149.67 3092.86 1149.78 3095.55L1123.01 3075.52C1101.37 3060.73 1071.2 3038.28 1049.04 3027.58C1048.11 3025.4 1047.94 3024.35 1047.29 3021.97L1049.06 3019.89C1053.81 3020.92 1058.56 3021.89 1063.31 3022.82C1074.95 3027.11 1094.77 3039.88 1106.54 3046.9C1108.15 3047.98 1110.4 3048.74 1112.18 3049.49L1112.37 3046.03L1113.78 3048.24C1112.77 3041.88 1095.55 3026.52 1091.08 3022.28C1073.08 3002.16 1053.64 2988.14 1035.01 2969.06C1013.18 2944.69 989.678 2919.05 965.066 2900.39L964.037 2896.48L965.311 2894.45L973.201 2894.55Z"/><path fill="#817E7F" fill-opacity="0.66666669" transform="scale(0.999973 1)" d="M1951.98 2112.4C1973.84 2101.89 2015.12 2083.15 2038.44 2071.24C2039.95 2071.84 2041.46 2072.45 2042.97 2073.05C2034.76 2079.72 1982.52 2110.75 1974.1 2111.68C1963.08 2108.89 1942.15 2120.16 1930.69 2124.64C1914.37 2130.81 1897.83 2135.71 1881.13 2139.33C1871.77 2141.36 1843.04 2148.95 1835.8 2141.45C1839.64 2140.38 1838.12 2141.78 1840.77 2138.11C1836.11 2137.65 1835.1 2135.31 1833.54 2130.29C1834.27 2122.5 1838.26 2116.92 1841.77 2110.55L1840.97 2107.23C1873.47 2069.16 1918.37 2097.36 1951.98 2112.4ZM1887.23 2127.03C1907.74 2125.14 1918.71 2125.2 1938.28 2114.99C1922.54 2109.45 1900.95 2097.34 1886.75 2096.83C1870.07 2099.22 1852.42 2103.2 1840.69 2122.15C1845.6 2130.94 1878.04 2127.37 1887.23 2127.03Z"/><path fill="#FDFBFC" fill-opacity="0.019607844" transform="scale(0.999973 1)" d="M1886.75 2096.83C1900.95 2097.34 1922.54 2109.45 1938.28 2114.99C1918.71 2125.2 1907.74 2125.14 1887.23 2127.03C1878.04 2127.37 1845.6 2130.94 1840.69 2122.15C1852.42 2103.2 1870.07 2099.22 1886.75 2096.83Z"/><path fill="#FDFBFC" fill-opacity="0.0078431377" transform="scale(0.999973 1)" d="M1731.78 2237.47C1743.35 2228.48 1756.06 2219.51 1767.84 2210.75L1773.49 2213.57C1774.17 2219.45 1772.48 2220.49 1771.81 2226.79C1766.29 2239.29 1759.99 2245.82 1754.33 2259.95C1750.37 2267.37 1746.09 2275.1 1742.33 2282.67C1716.79 2289.94 1707.41 2296.88 1683.84 2310.87C1672.81 2317.42 1661.09 2321.7 1649.24 2329.26C1643.15 2330.33 1636.45 2332.7 1630.62 2330.91L1628.97 2325.38C1659.38 2296.95 1699.06 2259.45 1731.78 2237.47Z"/><path fill="#918F94" fill-opacity="0.43529412" transform="scale(0.999973 1)" d="M1383.89 385.719C1387.68 366.145 1384.58 338.158 1390.13 321.259C1392.24 328.644 1394.58 386.722 1394.33 396.436C1392.54 382.032 1392.27 365.629 1389.52 352.751C1384.83 363.785 1387.76 399.901 1390.13 414.294C1392.01 424.253 1395.1 443.003 1397.96 452.271C1415.58 509.327 1402.62 567.228 1392.63 624.411C1390.76 635.103 1388.87 639.381 1390.22 650.397L1390.06 651.364C1382.99 668.704 1372.99 692.664 1368.68 711.6C1356.62 752.609 1342.21 833.329 1345.13 877.467C1347.28 933.149 1375.11 1014.34 1401.13 1056.31C1409.16 1069.27 1433.04 1107.69 1442.17 1115.63C1450.51 1128.37 1458.21 1141.92 1465.2 1156.19C1465.29 1170.8 1494.16 1232.62 1493.93 1242.47C1492.89 1287.81 1480.84 1358.69 1471.52 1400.36C1455.58 1438.62 1414.55 1603.34 1399.6 1625.89C1400.67 1616.79 1416.97 1571.24 1420.75 1558.01C1455.96 1434.63 1483.09 1376.86 1490.34 1239.6C1475.7 1200.54 1463.76 1164.93 1443.96 1130.07C1420.27 1087.73 1386.41 1051.58 1370.28 1001.64C1358.83 966.187 1341.48 916.931 1341.75 877.502C1342.03 837.758 1346.47 789.625 1355.08 751.955C1376.63 657.772 1422.36 552.446 1395.16 451.27C1389.59 430.524 1386.09 407.632 1383.89 385.719Z"/><path fill="#3A3739" fill-opacity="0.98431373" transform="scale(0.999973 1)" d="M2060.35 653.355C2057.27 611.997 2042.69 575.453 2019.85 548.291C2012.21 539.198 2001.14 534.121 1995.66 521.874C1995.52 518.688 1994.88 516.039 1996.15 513.694C2013.92 480.936 2042.54 505.507 2057.85 519.792C2061.84 539.481 2067.7 565.714 2068.58 585.668C2068.44 590.225 2068.18 599.529 2067.35 603.616C2063.61 621.819 2070.02 695.983 2064.25 705.283L2062.74 703.025C2064.05 671.549 2061.25 677.089 2060.35 653.355Z"/><path fill="#FDFBFC" transform="scale(0.999973 1)" d="M2013.51 501.008C2036.03 499.777 2044.04 510.892 2057.09 534.196L2056.28 536.737C2049.83 536.739 2052.53 529.596 2045 525.36L2044.34 534.104C2041.58 538.698 2043.28 536.745 2037.54 537.826L2039.78 529.118L2031.64 534.294L2033.27 535.351L2033.68 537.983C2027.53 543.127 1996.81 537.636 2000.45 514.217C2003.95 507.083 2008.01 505.095 2013.51 501.008Z"/><path fill="#A2A0A1" fill-opacity="0.35686275" transform="scale(0.999973 1)" d="M1950.42 2108.04C1970.79 2101.14 1988.18 2093.36 2007.66 2082.52C2016.43 2077.63 2054.28 2055.4 2059.89 2060.82C2056.02 2067.59 2048.81 2070.62 2042.97 2073.05C2041.46 2072.45 2039.95 2071.84 2038.44 2071.24C2015.12 2083.15 1973.84 2101.89 1951.98 2112.4C1918.37 2097.36 1873.47 2069.16 1840.97 2107.23C1818.36 2124.96 1798.91 2148.05 1773.64 2158.26C1762.33 2162.83 1748.76 2157.49 1736.93 2161.34C1682.66 2171.77 1625.43 2179.4 1576.81 2218.06C1572.83 2221.22 1555.51 2231.46 1553.87 2234.75C1539.88 2245.92 1529.02 2255.73 1515.64 2268.19C1484.04 2298.32 1458.9 2333.32 1434.8 2374.96C1402.71 2439.76 1393.13 2503.95 1387.26 2580.86C1384.82 2612.86 1383.59 2646.68 1377.49 2677.59C1370.82 2711.33 1356.82 2743.81 1347.66 2776.4C1335.2 2824.73 1328.27 2881.32 1323.23 2932.05C1322.27 2941.63 1318.51 2967.34 1318.74 2975.44L1317.3 2982.86C1313.1 2968.1 1319.72 2943.62 1320.93 2928.05C1324.98 2875.96 1332.37 2825.39 1344.88 2775.92C1352.87 2744.35 1371.84 2699.83 1376.43 2667.4C1385.07 2602.66 1383.78 2537.42 1397.32 2473.6C1426.86 2334.39 1521.09 2241.7 1612.46 2190.82C1649.8 2170.02 1702.64 2165.44 1742.46 2156.16C1756.12 2156.79 1761.17 2159.94 1774.85 2152.43C1783.92 2147.45 1797.63 2141.65 1805.9 2133.38C1866.51 2072.8 1881.13 2074.75 1950.42 2108.04Z"/><path fill="#A2A0A1" fill-opacity="0.50980395" transform="scale(0.999973 1)" d="M1742.33 2282.67C1746.09 2275.1 1750.37 2267.37 1754.33 2259.95C1751.54 2272.9 1718.62 2335.42 1711.04 2344.74C1686.48 2372.01 1662.47 2401.35 1635.6 2423.73C1586.25 2464.82 1535.93 2498.27 1488.58 2544.36L1485.66 2541.64C1537.61 2486.18 1613.81 2445.41 1666.47 2389.59C1676.06 2380.7 1719.39 2332.26 1721.65 2317.28C1705.16 2339.01 1680.63 2340.41 1659.34 2352.62C1641.1 2360.1 1627.02 2369.22 1609.91 2380.59C1605.99 2383.19 1592.38 2392.61 1589.04 2394.06L1588.2 2389.62C1611.89 2372.74 1634.03 2355.62 1657.15 2337.23C1664.46 2331.42 1680.32 2327.29 1683.75 2323C1659.5 2317.4 1612.99 2363.92 1587.57 2380.18L1586.21 2381.04C1596.02 2366.35 1634.96 2339.47 1649.24 2329.26C1661.09 2321.7 1672.81 2317.42 1683.84 2310.87C1707.41 2296.88 1716.79 2289.94 1742.33 2282.67Z"/><path fill="#3A3739" fill-opacity="0.96862745" transform="scale(0.999973 1)" d="M1700.98 2214.76L1703.49 2217.34C1703.53 2222.92 1702.91 2223.01 1700.63 2227.84C1702.82 2235.05 1704.17 2235.65 1702.83 2241.17C1696.95 2245.53 1695.11 2245 1692.54 2251.71L1694.29 2253.64C1709.51 2246.74 1719.7 2228.89 1731.78 2237.47C1699.06 2259.45 1659.38 2296.95 1628.97 2325.38C1616.32 2338.18 1592.63 2363.42 1579.92 2373.59C1582.22 2360.44 1585.31 2359.62 1584.02 2346.02C1590.38 2342.32 1615.36 2309.72 1619.65 2301.09C1628.03 2289.39 1640.14 2272.78 1647.43 2260.27C1657.6 2262.05 1656.87 2261.87 1666.27 2254.84C1668.8 2254.83 1696.97 2219.39 1700.98 2214.76Z"/><path fill="#413E3F" fill-opacity="0.89411765" transform="scale(0.999973 1)" d="M937.895 3016.6L941.496 3018.73C963.418 3043.7 1022.61 3058.06 1049.63 3068.93C1087.06 3083.99 1123.1 3103.31 1158.03 3127.66C1167.52 3134.26 1177.66 3145.31 1187.41 3149.73L1188.68 3154.01L1187.65 3155.58C1184.63 3154.09 1183.64 3153.08 1181.56 3151.1C1155.57 3126.35 1005.58 3055.52 985.26 3080.02C985.374 3086.82 986.125 3088.35 987.963 3094.49L987.616 3098.35L985.695 3100.03C980.977 3096.89 978.818 3094.69 974.461 3090.51L952.292 3058.45L952.329 3056.47C949.738 3050.65 949.544 3048.91 948.177 3042.5L949.272 3041.23C944.805 3033.72 935.233 3025.19 934.119 3019.44L937.895 3016.6Z"/><path fill="#292627" fill-opacity="0.95294118" transform="scale(0.999973 1)" d="M691.665 2695.72C689.734 2692.49 685.867 2687.53 686.015 2684.49C692.223 2684.01 701.033 2694.37 709.977 2696.95C715.698 2701.25 734.213 2716.03 739.13 2718.82C744.52 2726.56 766.547 2743.62 774.771 2750.89C807.756 2780.05 854.914 2846.68 871.387 2896.3L870.267 2900.57C866.034 2899.32 865.195 2896.46 861.625 2893.72C852.081 2877.06 847.9 2867.66 834.549 2856.91C827.446 2848.57 804.322 2840.51 798.718 2829.19L800.718 2824.2C797.67 2813.87 794.316 2819.71 792.091 2811.52L795.076 2810.76L795.434 2808.78C778.299 2778.91 749.64 2730.73 722.172 2720.61C711.789 2712.11 702.183 2704.67 691.665 2695.72Z"/><path fill="#D9D7D9" fill-opacity="0.023529412" transform="scale(0.999973 1)" d="M1070.72 2929.89C1072.48 2930.18 1074.67 2930.54 1077.28 2930.96C1103.08 2958.28 1124.42 3003.52 1153.66 3024.05L1155.23 3021.79C1152.32 3013.94 1148.86 3007.17 1147.83 2998.68L1150.47 2991.33C1160.21 3005.46 1176.3 3030.78 1185.73 3043.2C1187.61 3054.66 1193.57 3054.1 1195.25 3064.56L1193.39 3067.02C1189.76 3062.8 1184.99 3058.27 1181.11 3054.34C1175.65 3047.5 1155.16 3030.91 1147.8 3032.54L1147.93 3035.13C1158.16 3046.03 1164.92 3047.72 1176.81 3061.18C1184.83 3069.92 1197.46 3082.02 1203.63 3092.03C1207.87 3103.7 1216.53 3114.21 1223.39 3123.55L1220.89 3128.68C1216.27 3129.01 1212.57 3127.96 1208.21 3128.28C1178.53 3091.47 1155.65 3067.64 1132.45 3022.21C1127.54 3012.61 1075.4 2937.75 1072.29 2935.65L1070.72 2929.89Z"/><path fill="#413E3F" fill-opacity="0.88627452" transform="scale(0.999973 1)" d="M1873.86 1603.07C1890.98 1602.9 1942.42 1564.82 1955.4 1574.57C1952.8 1576.82 1948.51 1579.83 1946.98 1582.96C1927.48 1589.09 1921.19 1600.44 1911.02 1604.6C1901.39 1602.23 1872.47 1612.65 1867.57 1622.19C1870.88 1626.19 1899.08 1619.41 1902.72 1615.42C1915.31 1621.72 1933.11 1624.39 1945.56 1616.7L1952.29 1616.34L1953.15 1617.95C1944.89 1626.58 1925.23 1633.67 1914.23 1633.83C1838.48 1619.91 1800.48 1647.49 1742.15 1709.06C1739.43 1707.51 1740.57 1708.76 1738.84 1705.14L1743.48 1696.3L1786.1 1647.78C1791.82 1645.17 1793.12 1643.92 1798.82 1645.19C1815.91 1632.12 1845.19 1617.93 1863.9 1607.72L1873.86 1603.07Z"/><path fill="#D9D7D9" fill-opacity="0.34509805" transform="scale(0.999973 1)" d="M1434.91 2397.55C1442.65 2385.64 1461.28 2346.23 1471.85 2348.35L1474.06 2353.16C1462.25 2385.18 1455.38 2428.95 1442.04 2461.63C1438.65 2469.94 1436.37 2484.96 1433.14 2494.59C1432.55 2460.54 1454.04 2426.26 1451.8 2412.98C1448.53 2419.02 1442.02 2434.47 1438.56 2437.02C1439.19 2426.23 1449.24 2390.81 1452.46 2377.59C1437.17 2402.57 1434.71 2416.93 1426.86 2448.11C1426.48 2440.34 1426.03 2432.86 1426.09 2425.05C1424.39 2428.98 1401.48 2594.62 1400.16 2608.87C1406.2 2589.63 1412.68 2566.21 1416.21 2545.57C1418.47 2532.34 1418.35 2469.34 1425.31 2461.86C1425.81 2472.67 1423.31 2504.08 1425.38 2509.37C1428.96 2505.41 1430.33 2501.71 1432.84 2496.41C1432.76 2497.02 1432.68 2497.63 1432.61 2498.23C1425.46 2515.64 1407.01 2609.35 1398.97 2616.76C1395.14 2599.73 1407.99 2541.16 1406.43 2534.38L1404.89 2535.38L1403.08 2534.34C1399.02 2500.45 1416.78 2422.54 1434.91 2397.55Z"/><path fill="#A2A0A1" fill-opacity="0.35294119" transform="scale(0.999973 1)" d="M1203.63 3092.03C1210.83 3100.09 1219.41 3113.79 1225.77 3119.56C1243.94 3145.4 1344.71 3279.83 1343 3306.59C1342.89 3308.45 1342.55 3309.31 1342.09 3310.92C1335.27 3310.22 1291.05 3264.83 1279.35 3254.69C1257.45 3235.72 1228.63 3214.42 1203.76 3201.15C1190.5 3194.07 1164.92 3185.05 1154.1 3177.24C1145.94 3169.96 1130.26 3164.03 1120.61 3161.68L1118.47 3162.76C1122.59 3168.32 1135.97 3178.52 1141.61 3177.73C1147.21 3180.74 1148.71 3180.93 1152.79 3186.73C1151.22 3189.37 1151.13 3188.4 1147.71 3189.55L1147.78 3188.05L1147.47 3190.58C1139.82 3193.18 1139.1 3190.8 1132.75 3197.42L1133.22 3201.96C1140.09 3205.72 1153.41 3212.3 1160.58 3213.72L1162.83 3217.87C1158.77 3219.61 1123.58 3212.65 1118.27 3210.18C1114.23 3207.87 1113.53 3208.66 1111.66 3204.45C1118.55 3205.48 1124.79 3212.08 1131.97 3209.34C1120.65 3198.91 1101.79 3193.41 1093.1 3183.92C1106.36 3184.87 1114.37 3191.26 1129.96 3191.09L1132.09 3191.05C1115.51 3179.89 1092.59 3175.44 1078.8 3161.5C1093.63 3164.18 1109.48 3172.39 1122.87 3172.9C1121.5 3168.71 1099.38 3158.88 1090.13 3147.07L1091.54 3145.08C1141.5 3161.81 1224.06 3203.6 1268.03 3239.59C1269.38 3241.54 1286.4 3257.08 1288.88 3259.37C1306.8 3276.09 1324.81 3292.62 1342.91 3308.96C1321.28 3250.76 1276.28 3199.99 1243.88 3152.63C1239.42 3144.35 1229.33 3129.57 1223.39 3123.55C1216.53 3114.21 1207.87 3103.7 1203.63 3092.03Z"/><path fill="#292627" fill-opacity="0.85882354" transform="scale(0.999973 1)" d="M2068.58 585.668C2072.68 601.604 2069.3 609.388 2070.53 624.321C2076.52 697.35 2059.59 786.867 2037.53 853.24C2020.59 904.203 1997.14 970.366 1974.43 1017.99C1971.22 1014.05 1971.81 1014.25 1969.68 1008.67C1998.43 955.997 2044.21 814.499 2053 749.858C2055.64 729.482 2057.47 708.91 2058.47 688.242C2059.03 675.469 2057.49 665.691 2060.35 653.355C2061.25 677.089 2064.05 671.549 2062.74 703.025L2064.25 705.283C2070.02 695.983 2063.61 621.819 2067.35 603.616C2068.18 599.529 2068.44 590.225 2068.58 585.668Z"/><path fill="#918F94" fill-opacity="0.49803922" transform="scale(0.999973 1)" d="M739.13 2718.82C760.115 2728.1 779.03 2754.52 798.809 2767.64C801.903 2769.7 810.635 2769.1 814.432 2771.25C869.51 2802.51 927.483 2820.37 984.002 2845.38C989.857 2847.97 1004.89 2854.37 1009.61 2858.47L1006.42 2861.34C1009.51 2871.31 1018.77 2866.64 1025.7 2884.97C1021.27 2885.18 1016.44 2881.34 1012.01 2878.68C1014.01 2886.88 1027.67 2901.58 1032.02 2911.71C1012.05 2892.42 1007.17 2864.65 986.365 2855.51C947.06 2838.23 906.866 2824.14 867.706 2806.25L855.411 2801.08C850.286 2798.62 846.702 2795.85 841.597 2797.63C843.67 2802.4 845.606 2802.14 850.14 2804.86C857.074 2809.71 864.251 2814.91 871.232 2819.53L881.348 2826.38C876.075 2826.1 873.126 2825.34 868.149 2827.93L859.937 2823.03C839.721 2808.55 826.376 2788.22 805.892 2777.07L804.667 2776.43C814.193 2789.24 823.666 2802.12 833.087 2815.09C834.501 2817.07 842.681 2829.72 843.22 2830.31C851.716 2846.15 868.616 2879.27 874.906 2896.27L871.387 2896.3C854.914 2846.68 807.756 2780.05 774.771 2750.89C766.547 2743.62 744.52 2726.56 739.13 2718.82Z"/><path fill="#686467" fill-opacity="0.71372551" transform="scale(0.999973 1)" d="M1009.61 2858.47C1025.51 2866.52 1111.09 2917.95 1116.99 2931.15C1112.18 2931.53 1102.98 2923.14 1096.03 2920.15L1094.59 2921.61L1097.4 2928.9C1080.92 2915.32 1065.86 2902.79 1048.03 2892.66C1053.45 2904.05 1062.85 2921.91 1070.72 2929.89L1072.29 2935.65C1074.54 2950.2 1107.72 2981.72 1108.97 2995.6C1106.86 2998.62 1108.18 2997.45 1104.85 2998.68L1102.49 2997.18C1086.67 2979.21 1045.88 2930.94 1032.02 2911.71C1027.67 2901.58 1014.01 2886.88 1012.01 2878.68C1016.44 2881.34 1021.27 2885.18 1025.7 2884.97C1018.77 2866.64 1009.51 2871.31 1006.42 2861.34L1009.61 2858.47Z"/><path fill="#555254" fill-opacity="0.7764706" transform="scale(0.999973 1)" d="M1413.4 481.779L1417.52 485.272C1421.76 527.419 1503.18 680.871 1523.32 731.43C1527.16 742.796 1531.1 754.962 1535.14 766.111C1542.06 786.307 1553.28 821.713 1557.1 843.531C1557.01 853.659 1557.49 865.242 1555.34 874.621C1549.34 837.732 1544.43 814.915 1532.32 781.552C1531.88 775.586 1528.79 768.745 1526.52 763.812L1523.67 764.096C1519.42 754.866 1512.33 727.298 1505.64 713.068C1481.23 661.103 1457.57 606.963 1432.78 555.47C1435.38 571.741 1438.21 588.167 1439.89 604.659C1433.9 589.212 1431.48 566.238 1431.73 548.622C1428.76 544.618 1420.27 520.155 1417.78 513.477L1418.67 511.702C1417.52 500.921 1415.54 492.17 1413.4 481.779Z"/><path fill="#EFEFEE" fill-opacity="0.031372551" transform="scale(0.999973 1)" d="M1478.98 2564.98C1499.09 2549.29 1558.59 2490.7 1578.83 2490.87C1566.46 2512.45 1539.17 2530.44 1534.01 2539.57C1538.45 2538.36 1542.88 2537.04 1547.28 2535.59L1548.72 2536.95C1545 2544.16 1538.88 2546.28 1532.84 2550.29C1520.58 2556.01 1452.91 2611.13 1439.47 2622.8C1435.63 2622.48 1433.78 2623.1 1430.96 2619.7L1431.14 2615.84C1440.41 2601.85 1453.58 2603.63 1455.37 2585.63C1461.47 2582.19 1474.2 2571.64 1478.98 2564.98Z"/><path fill="#A2A0A1" fill-opacity="0.94117647" transform="scale(0.999973 1)" d="M1578.83 2490.87C1578.37 2481.64 1618.67 2450.6 1625.69 2446.37L1627.69 2448.17C1626.09 2466.39 1610.58 2476.46 1612.1 2482.31C1616.65 2480.14 1620.07 2479.33 1623.24 2474.38C1625.23 2464.8 1623.62 2467.29 1628.66 2463.34L1633.19 2463.54L1634.9 2466.82C1631.7 2485.3 1609.67 2494.54 1601.57 2509.27C1590.29 2518.98 1542.8 2560.13 1532.84 2550.29C1538.88 2546.28 1545 2544.16 1548.72 2536.95L1547.28 2535.59C1542.88 2537.04 1538.45 2538.36 1534.01 2539.57C1539.17 2530.44 1566.46 2512.45 1578.83 2490.87Z"/><path fill="#413E3F" fill-opacity="0.9254902" transform="scale(0.999973 1)" d="M1774.05 2187.18C1785.34 2187.64 1803.62 2171.44 1810.61 2179.83L1809.51 2183.5C1804.01 2186.88 1797.04 2190 1792.47 2194.6C1784.2 2199.79 1775.99 2205.18 1767.84 2210.75C1756.06 2219.51 1743.35 2228.48 1731.78 2237.47C1719.7 2228.89 1709.51 2246.74 1694.29 2253.64L1692.54 2251.71C1695.11 2245 1696.95 2245.53 1702.83 2241.17C1704.17 2235.65 1702.82 2235.05 1700.63 2227.84C1702.91 2223.01 1703.53 2222.92 1703.49 2217.34L1700.98 2214.76C1702.36 2211.85 1707.46 2206.43 1709.39 2203.64C1728.1 2176.59 1750.82 2204.3 1774.05 2187.18Z"/><path fill="#292627" fill-opacity="0.94509804" transform="scale(0.999973 1)" d="M2079.03 1474.03C2088.73 1476.38 2093.43 1469.23 2105.16 1470.81L2105.65 1472.32L2104.52 1474.69L2101.63 1476.75C2077.52 1487.36 2041.16 1497.47 2014.58 1507.29L2010.52 1505.93L2010.57 1503.66L2018.24 1496.49L2018.41 1494.18C2002.44 1489.97 1995.84 1503.19 1982.36 1504.21C1981.03 1500.49 1980.97 1500.31 1980.28 1496.27C1968.58 1498.18 1939.15 1501.06 1931.11 1509.4C1914.48 1512.67 1900.64 1534.84 1887.86 1536.75L1886.93 1534.38C1894.69 1505.29 1984.08 1488.1 1997.07 1475.35C2019.35 1469.94 2031.41 1477.13 2053.41 1478.02C2061.49 1478.34 2070.97 1475.94 2079.03 1474.03Z"/><path fill="#A2A0A1" fill-opacity="0.39607844" transform="scale(0.999973 1)" d="M2014.58 1507.29C2041.16 1497.47 2077.52 1487.36 2101.63 1476.75C2095.61 1483.12 2092.02 1485.05 2085.29 1489.29C2082.8 1494.56 2079.61 1501.83 2077.04 1506.74C2072.34 1505.71 2071.66 1506.36 2067.06 1507.71C2070.75 1501.43 2074.1 1495.79 2078.02 1489.79C2047.82 1497.18 2013.99 1512.23 1984.12 1523.34C1972.5 1527.66 1958.49 1535.43 1947.22 1539.12C1926.31 1546.72 1909.93 1563.53 1889.9 1573.71C1888.32 1573.24 1886.74 1572.76 1885.15 1572.28L1886.63 1570.86C1894.93 1563.03 1917.91 1549.65 1920.86 1543.14C1907.21 1530.33 1857.58 1567.44 1845.44 1579.57C1854.8 1558.87 1873.3 1555.9 1887 1544.7C1902.81 1531.78 1913.76 1521.02 1930.9 1512.22C1934.98 1515.12 1934.66 1515.23 1939.16 1514.57C1945.03 1508.66 1946.67 1505.84 1953.51 1504.93C1958.51 1507.14 1956.52 1505.11 1959.54 1511.56C1962.75 1513.53 1970.62 1511.56 1974.68 1511.03L1974.78 1512.83L1960.13 1526.1L1960.29 1527.83C1967.73 1527 2004.43 1511.23 2014.58 1507.29Z"/><path fill="#413E3F" fill-opacity="0.98039216" transform="scale(0.999973 1)" d="M1515.64 2268.19L1518.62 2270.88C1517.73 2275.61 1518.76 2273.71 1516.36 2277.06C1502.85 2295.88 1493.99 2321.59 1482.09 2342.62C1482.09 2342.62 1481.61 2350.37 1481.57 2351.12L1482.67 2351.88C1485.61 2345.07 1487.6 2340.45 1491.02 2334.15L1492.09 2334.87C1489.92 2350.54 1487.86 2350.84 1485.58 2374.09L1466.25 2424.42C1465.06 2398.73 1479.58 2373.29 1474.06 2353.16L1471.85 2348.35C1461.28 2346.23 1442.65 2385.64 1434.91 2397.55C1435.74 2387.74 1436.54 2384.23 1434.8 2374.96C1458.9 2333.32 1484.04 2298.32 1515.64 2268.19Z"/><path fill="#555254" fill-opacity="0.58431375" transform="scale(0.999973 1)" d="M1267.5 3100.07C1276.28 3091.78 1263.95 3054.35 1261.23 3043.03C1221.94 2879.33 1175.28 2709.11 1169.71 2535.01C1169.29 2522.06 1167.92 2498.12 1171.02 2486.74C1176.08 2589.89 1177.69 2677.04 1203.21 2777.57C1222.32 2852.84 1233.22 2935.98 1255.87 3010.68C1261.67 3029.8 1261.53 3039.04 1270.26 3060.64C1275.26 3043.44 1242.42 2939.85 1245.84 2928.9C1252.47 2907.67 1272.89 2798.53 1280.55 2789.76C1279.5 2804.34 1253.26 2910.23 1246.79 2927.12C1252.2 2951.22 1268.08 3027.66 1274.21 3045.97C1274.12 3059.49 1276.9 3096.36 1273.51 3103.91L1270.81 3104.48C1270.11 3103.58 1268.01 3100.99 1267.5 3100.07Z"/><path fill="#817E7F" fill-opacity="0.49803922" transform="scale(0.999973 1)" d="M941.496 3018.73C959.652 3026.17 977.221 3038.46 994.76 3045.78C1010.86 3052.51 1029.52 3057.73 1046.03 3063.9C1069.35 3072.86 1092.31 3083.62 1114.79 3096.14C1148.07 3116.61 1206.47 3155.35 1234.5 3187.67C1223.38 3182.41 1207 3169.44 1199.06 3167.24C1141.64 3130.5 1096.06 3098.85 1032.72 3086.11C1022.48 3083.12 996.942 3071.6 992.207 3087.86C992.885 3100.64 997.314 3107.52 1002.65 3117.71L1001.21 3116.36C994.995 3110.66 992.233 3103.26 987.963 3094.49C986.125 3088.35 985.374 3086.82 985.26 3080.02C1005.58 3055.52 1155.57 3126.35 1181.56 3151.1C1183.64 3153.08 1184.63 3154.09 1187.65 3155.58L1188.68 3154.01L1187.41 3149.73C1177.66 3145.31 1167.52 3134.26 1158.03 3127.66C1123.1 3103.31 1087.06 3083.99 1049.63 3068.93C1022.61 3058.06 963.418 3043.7 941.496 3018.73Z"/><path fill="#555254" fill-opacity="0.80000001" transform="scale(0.999973 1)" d="M1601.57 2509.27L1609.44 2508.86C1589.37 2526.88 1564.65 2546.54 1543.25 2561.36C1499.39 2591.75 1430.86 2630.32 1395.22 2678.7L1392.28 2679.2C1392.89 2674.82 1391.94 2671.67 1391.21 2666.99C1392.85 2660.8 1391.51 2663.51 1396.16 2659.5C1401.13 2662.38 1409.27 2650.83 1413.08 2645.99C1420.07 2638.94 1431.84 2629.41 1439.47 2622.8C1452.91 2611.13 1520.58 2556.01 1532.84 2550.29C1542.8 2560.13 1590.29 2518.98 1601.57 2509.27Z"/><path fill="#817E7F" fill-opacity="0.63921571" transform="scale(0.999973 1)" d="M722.172 2720.61C749.64 2730.73 778.299 2778.91 795.434 2808.78L795.076 2810.76L792.091 2811.52C794.316 2819.71 797.67 2813.87 800.718 2824.2L798.718 2829.19C804.322 2840.51 827.446 2848.57 834.549 2856.91C807.366 2845.61 782.497 2843.13 754.595 2835.15C759.836 2834.39 760.255 2833.93 765.059 2831.51C770.686 2832.86 780.077 2832.76 784.946 2828.6C774.776 2819.38 767.507 2817.64 756.026 2815L755.107 2812.91C759.964 2812.28 764.003 2812.43 768.242 2809.21C768.909 2804.07 768.287 2805.79 770.323 2801.7C773.786 2801.83 775.241 2801.82 778.676 2801.33C774.455 2793.65 759.213 2791.93 755.679 2780.92C759.911 2777.53 765.198 2786.04 770.353 2782.85C766.524 2769.79 739.377 2757.57 734.546 2747.61C738.198 2744.62 737.145 2746.14 739.656 2741.66C737.79 2735.84 727.439 2727.12 722.172 2720.61Z"/><path fill="#D9D7D9" fill-opacity="0.035294119" transform="scale(0.999973 1)" d="M1322.27 3243.2C1308.82 3219.47 1229.78 3104.51 1232.13 3083.42L1235.03 3080.9C1244.1 3082.86 1254.58 3107.92 1262.67 3120.33L1263.7 3121.9L1268.28 3128.19C1271.21 3126.58 1269.84 3127.57 1272.13 3123.66C1279.54 3130.66 1320.96 3224.85 1322.18 3242.03L1322.27 3243.2Z"/><path fill="#A2A0A1" fill-opacity="0.52941179" transform="scale(0.999973 1)" d="M2067.06 1507.71C2071.66 1506.36 2072.34 1505.71 2077.04 1506.74C2053.73 1546.96 1992.3 1609.4 1958.27 1625.39C1961.01 1621.82 1982.17 1603.77 1988.4 1597.55C1973.68 1604.9 1959.07 1609.87 1945.56 1616.7C1933.11 1624.39 1915.31 1621.72 1902.72 1615.42C1905.05 1612.08 1908.49 1607.87 1911.02 1604.6C1921.19 1600.44 1927.48 1589.09 1946.98 1582.96C1940.47 1591.05 1929.59 1591.48 1926.76 1600.73C1962.04 1604.75 1959.46 1611.76 1993.49 1586.2C2024.03 1563.27 2043.96 1544.57 2067.06 1507.71Z"/><path fill="#FDFBFC" fill-opacity="0.011764706" transform="scale(0.999973 1)" d="M1018.29 3135.88L1019.62 3135.74C1025.94 3135.02 1028.47 3132.75 1034.4 3130.92L1035.62 3128.54C1028.78 3120.41 1022.41 3120.49 1017.24 3111.91L1017.33 3108.74C1022.13 3104.12 1025.7 3107.55 1030.42 3112.11C1043.34 3124.57 1056.86 3122.42 1071.62 3130.7L1073.3 3136.79L1076.35 3138.29C1077.82 3146.16 1083.38 3149.65 1088.87 3154.66L1089.95 3158.8C1081.08 3163.01 1072.04 3152.78 1067.3 3157.05C1072.56 3166.11 1074.73 3160.12 1077.33 3168.63C1075.01 3171.4 1076.4 3170.36 1072.44 3170.16L1072.13 3176.03C1075.07 3178.45 1073.48 3177.43 1076.96 3178.96L1077.34 3180.94L1071.09 3181.88C1057.38 3175.13 1030.06 3148.49 1018.29 3135.88Z"/><path fill="#D9D7D9" fill-opacity="0.30588236" transform="scale(0.999973 1)" d="M1430.18 2569.01C1438.5 2553.56 1449.72 2525.73 1457.91 2508.13C1480.46 2459.94 1502.76 2411.52 1524.82 2362.88C1536.31 2337.03 1572.04 2244.32 1585.81 2231.63L1587.23 2232.91C1585.8 2249.34 1567.31 2289.26 1561.01 2307.67L1560.32 2309.72C1549.91 2333.51 1536.87 2376.16 1528.54 2402.04C1537.38 2389.62 1557.93 2360.32 1565.03 2346.37C1572.41 2336.88 1573.15 2331.58 1582.22 2321.76C1576.16 2338.67 1527.17 2413.14 1515.86 2427.07C1523.93 2400.43 1536.75 2363.32 1546.3 2337.31C1550.75 2328.54 1581.48 2246.87 1584.05 2237.31C1568.4 2263.96 1550.49 2307.06 1538.55 2337.74C1512.87 2405.43 1470.63 2492.33 1439.62 2557.11C1436.32 2562.44 1433.93 2566.79 1430.92 2572.45L1430.18 2569.01Z"/><path fill="#817E7F" fill-opacity="0.56862748" transform="scale(0.999973 1)" d="M1786.1 1647.78C1801.37 1626.56 1817.25 1601.12 1832.63 1580.94C1877.81 1521.27 1935.57 1484.18 1997.07 1475.35C1984.08 1488.1 1894.69 1505.29 1886.93 1534.38L1887.86 1536.75C1900.64 1534.84 1914.48 1512.67 1931.11 1509.4L1930.9 1512.22C1913.76 1521.02 1902.81 1531.78 1887 1544.7C1873.3 1555.9 1854.8 1558.87 1845.44 1579.57C1829.05 1599.49 1820.39 1611.76 1806.15 1634.68C1803.14 1638.59 1801.52 1641 1798.82 1645.19C1793.12 1643.92 1791.82 1645.17 1786.1 1647.78Z"/><path fill="#EFEFEE" fill-opacity="0.082352944" transform="scale(0.999973 1)" d="M1426.86 2448.11C1434.71 2416.93 1437.17 2402.57 1452.46 2377.59C1449.24 2390.81 1439.19 2426.23 1438.56 2437.02C1442.02 2434.47 1448.53 2419.02 1451.8 2412.98C1454.04 2426.26 1432.55 2460.54 1433.14 2494.59L1432.84 2496.41C1430.33 2501.71 1428.96 2505.41 1425.38 2509.37C1423.31 2504.08 1425.81 2472.67 1425.31 2461.86C1418.35 2469.34 1418.47 2532.34 1416.21 2545.57C1412.68 2566.21 1406.2 2589.63 1400.16 2608.87C1401.48 2594.62 1424.39 2428.98 1426.09 2425.05C1426.03 2432.86 1426.48 2440.34 1426.86 2448.11Z"/><path fill="#292627" fill-opacity="0.98823529" transform="scale(0.999973 1)" d="M1553.87 2234.75C1556.38 2246.65 1550.41 2245.85 1548.56 2257.51C1521.55 2299.11 1505.49 2323.71 1485.58 2374.09C1487.86 2350.84 1489.92 2350.54 1492.09 2334.87L1491.02 2334.15C1487.6 2340.45 1485.61 2345.07 1482.67 2351.88L1481.57 2351.12C1481.61 2350.37 1482.09 2342.62 1482.09 2342.62C1493.99 2321.59 1502.85 2295.88 1516.36 2277.06C1518.76 2273.71 1517.73 2275.61 1518.62 2270.88L1515.64 2268.19C1529.02 2255.73 1539.88 2245.92 1553.87 2234.75Z"/><path fill="#3A3739" fill-opacity="0.76078433" transform="scale(0.999973 1)" d="M1274.21 3045.97L1274.55 3049.1C1276.37 3066.04 1275.69 3101.55 1278.71 3112.12C1286.67 3139.94 1307.63 3172.7 1319.19 3199.27C1329.21 3222.3 1331.9 3246.77 1340.25 3268.29C1333.45 3260.56 1328.11 3252.27 1322.27 3243.2L1322.18 3242.03C1320.96 3224.85 1279.54 3130.66 1272.13 3123.66C1269.84 3127.57 1271.21 3126.58 1268.28 3128.19L1263.7 3121.9L1266.61 3118.66C1266.63 3103.68 1254 3100.95 1250.63 3089.02C1255.7 3085.56 1253.85 3088.08 1256.6 3081.56C1260.27 3087.68 1263.91 3093.85 1267.5 3100.07C1268.01 3100.99 1270.11 3103.58 1270.81 3104.48L1273.51 3103.91C1276.9 3096.36 1274.12 3059.49 1274.21 3045.97Z"/><path fill="#686467" fill-opacity="0.627451" transform="scale(0.999973 1)" d="M1296.41 2022.95C1318.86 2088.69 1345.12 2190.2 1353.66 2262.61C1351.08 2257.81 1350.72 2256.3 1346.99 2253.39L1343.15 2255.05C1344.6 2232.68 1318.96 2117.73 1310.97 2090.87C1307.57 2079.43 1296.06 2049.02 1291.51 2034.23C1295.15 2029.71 1294.9 2029.27 1296.41 2022.95Z"/><path fill="#292627" fill-opacity="0.90980393" transform="scale(0.999973 1)" d="M1390.13 414.294C1390.41 404.545 1389.9 396.456 1389.43 386.778C1391.3 393.373 1393.05 400.028 1394.7 406.738C1400.07 432.784 1407.06 456.387 1413.4 481.779C1415.54 492.17 1417.52 500.921 1418.67 511.702L1417.78 513.477C1415.21 520.661 1414.19 537.049 1412.22 547.365C1405.98 580.098 1399.76 619.245 1390.22 650.397C1388.87 639.381 1390.76 635.103 1392.63 624.411C1402.62 567.228 1415.58 509.327 1397.96 452.271C1395.1 443.003 1392.01 424.253 1390.13 414.294Z"/><path fill="#686467" fill-opacity="0.52549022" transform="scale(0.999973 1)" d="M1392.28 2679.2L1395.22 2678.7C1361.91 2731.73 1339.83 2857.41 1332.16 2926.98C1330.52 2941.89 1326.33 2966.31 1326.98 2980.78C1327.88 3000.48 1328.49 2998.79 1325.15 3018.24L1324.67 3020.98C1321.76 3041.88 1324.71 3127.05 1322.58 3133.47C1320.16 3129.46 1320.18 3128 1318.95 3122.9C1317.4 3095.42 1320.55 2999.82 1317.3 2982.86L1318.74 2975.44L1319.14 2977.57C1321.94 2993.31 1321.43 3001.55 1321.45 3017.91L1322.28 3018.57C1326.73 3008.03 1324.31 2982.07 1324.78 2969.01C1327.06 2905.6 1360.51 2718.69 1392.28 2679.2Z"/><path fill="#686467" fill-opacity="0.627451" transform="scale(0.999973 1)" d="M974.461 3090.51C978.818 3094.69 980.977 3096.89 985.695 3100.03L987.616 3098.35L987.963 3094.49C992.233 3103.26 994.995 3110.66 1001.21 3116.36L1002.65 3117.71L1009.52 3125.22C1012.76 3129.48 1014.82 3132.02 1018.29 3135.88C1030.06 3148.49 1057.38 3175.13 1071.09 3181.88C1084.51 3191.6 1101 3196.58 1111.66 3204.45C1113.53 3208.66 1114.23 3207.87 1118.27 3210.18L1108.28 3213.8C1067.94 3195.43 996.104 3141.7 974.461 3090.51Z"/><path fill="#FDFBFC" fill-opacity="0.050980393" transform="scale(0.999973 1)" d="M1659.34 2352.62C1680.63 2340.41 1705.16 2339.01 1721.65 2317.28C1719.39 2332.26 1676.06 2380.7 1666.47 2389.59C1663.53 2389.81 1656.39 2392.04 1654.71 2389.65C1651.25 2384.73 1647.81 2376.55 1651.31 2370.24C1656.06 2370.22 1656.64 2371.1 1660.53 2368.21C1657.5 2358.65 1657.81 2362.81 1659.34 2352.62Z"/><path fill="#686467" fill-opacity="0.47450981" transform="scale(0.999973 1)" d="M1819.51 1270.03C1829.58 1257.77 1840.12 1238.05 1849.7 1224.35C1877.22 1185 1898.93 1136.13 1924.97 1095.54C1927.06 1102.55 1925.38 1100.23 1929.65 1103.42C1924.96 1114.72 1910.74 1137.23 1904.03 1148.86C1877.93 1194.13 1849.2 1236.7 1821.5 1280.14L1819.51 1270.03Z"/><path fill="#FDFBFC" fill-opacity="0.039215688" transform="scale(0.999973 1)" d="M1076.35 3138.29C1081.6 3138.88 1087.16 3140.56 1091.54 3145.08L1090.13 3147.07C1099.38 3158.88 1121.5 3168.71 1122.87 3172.9C1109.48 3172.39 1093.63 3164.18 1078.8 3161.5C1092.59 3175.44 1115.51 3179.89 1132.09 3191.05L1129.96 3191.09C1114.37 3191.26 1106.36 3184.87 1093.1 3183.92C1101.79 3193.41 1120.65 3198.91 1131.97 3209.34C1124.79 3212.08 1118.55 3205.48 1111.66 3204.45C1101 3196.58 1084.51 3191.6 1071.09 3181.88L1077.34 3180.94L1076.96 3178.96C1073.48 3177.43 1075.07 3178.45 1072.13 3176.03L1072.44 3170.16C1076.4 3170.36 1075.01 3171.4 1077.33 3168.63C1074.73 3160.12 1072.56 3166.11 1067.3 3157.05C1072.04 3152.78 1081.08 3163.01 1089.95 3158.8L1088.87 3154.66C1083.38 3149.65 1077.82 3146.16 1076.35 3138.29Z"/><path fill="#EFEFEE" fill-opacity="0.12156863" transform="scale(0.999973 1)" d="M923.856 2918.64C931.315 2914.67 935.776 2918.03 943.701 2921.61C956.489 2928.09 977.216 2938.31 986.563 2950.03C986.977 2950.28 987.391 2950.52 987.805 2950.77L981.834 2951.69L981.199 2954.45C987.56 2963 1013.25 2976.61 1021.65 2972.76C1025.7 2973.84 1029.39 2975.05 1033.5 2974.99C1035.89 2979.23 1037.58 2982.15 1039.64 2986.83C1035.11 2989.41 1034.14 2988.48 1028.98 2988.25C1027.92 2987.46 1000.14 2975.61 995.765 2973.53C987.633 2966.77 981.29 2965.82 973.957 2960.15C961.398 2950.44 952.533 2942.7 939.21 2934.23C938.106 2931.72 926.461 2921.14 923.856 2918.64Z"/><path fill="#555254" fill-opacity="0.8392157" transform="scale(0.999973 1)" d="M1351.72 2391.07L1353.58 2388.03C1354.04 2383.89 1356.27 2361.38 1357.15 2359.29C1360.72 2362.82 1359.35 2360.51 1360.88 2366.98C1359.66 2373.05 1357.92 2391.04 1361.61 2395.34C1365.42 2412.8 1349.61 2482.86 1348.2 2506.81C1347.6 2516.98 1342.09 2547.59 1339.34 2558C1339.87 2551.62 1339.77 2551.42 1339.18 2544.99L1337.46 2545.03L1331.25 2556.18C1341.03 2515.31 1351.49 2433.6 1351.72 2391.07Z"/><path fill="#413E3F" fill-opacity="0.80392158" transform="scale(0.999973 1)" d="M1776.35 2224.56C1779.26 2222.25 1780.95 2220.93 1784.01 2219.08C1786.5 2221.94 1785.78 2220.67 1787.26 2224.86C1766.11 2254.91 1717.7 2344.37 1703.08 2382.61C1702.61 2357.49 1713.72 2358.17 1714.45 2345.67L1711.04 2344.74C1718.62 2335.42 1751.54 2272.9 1754.33 2259.95C1759.99 2245.82 1766.29 2239.29 1771.81 2226.79L1776.35 2224.56Z"/><path fill="#918F94" fill-opacity="0.45490196" transform="scale(0.999973 1)" d="M896.331 2848.93C914.839 2855.98 946.628 2887.52 965.066 2900.39C989.678 2919.05 1013.18 2944.69 1035.01 2969.06L1025.59 2965.05C1015.26 2953.02 956.712 2914.81 942.918 2905.78L942.289 2896.84L980.652 2919.96C965.631 2903.27 937.752 2882.38 920.74 2869.25C912.671 2862.9 903.844 2856.41 896.331 2848.93Z"/><defs><linearGradient id="gradient_0" gradientUnits="userSpaceOnUse" x1="1165.7883" y1="3102.6521" x2="1170.6049" y2="3093.3743"><stop offset="0" stop-color="#363334" stop-opacity="0.94901961"/><stop offset="1" stop-color="#2C292A" stop-opacity="0.98431373"/></linearGradient></defs><path fill="url(#gradient_0)" transform="scale(0.999973 1)" d="M1149.78 3095.55C1149.67 3092.86 1149.57 3090.16 1149.46 3087.47C1142.56 3076.31 1130.62 3067.08 1122.98 3056.98L1124.61 3055.74C1127.07 3056.43 1127.82 3056.56 1129.79 3058.85C1137.53 3067.88 1151.81 3072.94 1161.87 3077.7C1176.24 3093.87 1192.21 3113.94 1206.05 3131.3C1202.96 3135.67 1204.35 3134.56 1200.46 3136.81C1187.17 3122.09 1165.16 3106.84 1149.78 3095.55Z"/><path fill="#555254" fill-opacity="0.72156864" transform="scale(0.999973 1)" d="M884.019 2918.34C899.252 2950.53 917.246 2991.64 937.895 3016.6L934.119 3019.44C935.233 3025.19 944.805 3033.72 949.272 3041.23L948.177 3042.5C949.544 3048.91 949.738 3050.65 952.329 3056.47L952.292 3058.45C938.928 3047.73 889.056 2952.32 878.642 2927.9C880.443 2927.6 881.353 2927.1 883.098 2926.4L884.019 2918.34Z"/><path fill="#686467" fill-opacity="0.59215689" transform="scale(0.999973 1)" d="M1742.15 1709.06C1740.68 1713.02 1698.42 1757.95 1692.54 1772.09C1685.82 1788.27 1679.03 1798.95 1674.44 1819.1C1673.24 1824.36 1667.23 1853.2 1666.74 1854.3C1664.14 1785.87 1705.02 1729.38 1743.48 1696.3L1738.84 1705.14C1740.57 1708.76 1739.43 1707.51 1742.15 1709.06Z"/><path fill="#817E7F" fill-opacity="0.7019608" transform="scale(0.999973 1)" d="M1931.11 1509.4C1939.15 1501.06 1968.58 1498.18 1980.28 1496.27C1980.97 1500.31 1981.03 1500.49 1982.36 1504.21C1995.84 1503.19 2002.44 1489.97 2018.41 1494.18L2018.24 1496.49L2010.57 1503.66L2010.52 1505.93L2014.58 1507.29C2004.43 1511.23 1967.73 1527 1960.29 1527.83L1960.13 1526.1L1974.78 1512.83L1974.68 1511.03C1970.62 1511.56 1962.75 1513.53 1959.54 1511.56C1956.52 1505.11 1958.51 1507.14 1953.51 1504.93C1946.67 1505.84 1945.03 1508.66 1939.16 1514.57C1934.66 1515.23 1934.98 1515.12 1930.9 1512.22L1931.11 1509.4Z"/><path fill="#555254" fill-opacity="0.59215689" transform="scale(0.999973 1)" d="M1072.29 2935.65C1075.4 2937.75 1127.54 3012.61 1132.45 3022.21C1155.65 3067.64 1178.53 3091.47 1208.21 3128.28L1207.96 3128.99L1206.05 3131.3C1192.21 3113.94 1176.24 3093.87 1161.87 3077.7C1156.93 3069.22 1145.37 3059.67 1137.73 3049.29L1138.67 3046.19C1134.17 3028.88 1114.49 3012.74 1106.22 3000.71L1104.85 2998.68C1108.18 2997.45 1106.86 2998.62 1108.97 2995.6C1107.72 2981.72 1074.54 2950.2 1072.29 2935.65Z"/><path fill="#817E7F" fill-opacity="0.76078433" transform="scale(0.999973 1)" d="M1343.15 2255.05L1346.99 2253.39C1350.72 2256.3 1351.08 2257.81 1353.66 2262.61C1359.55 2308.64 1364.48 2348.31 1361.61 2395.34C1357.92 2391.04 1359.66 2373.05 1360.88 2366.98C1359.35 2360.51 1360.72 2362.82 1357.15 2359.29C1356.27 2361.38 1354.04 2383.89 1353.58 2388.03L1351.72 2391.07C1350.29 2344.12 1354.97 2301.91 1343.15 2255.05Z"/><path fill="#817E7F" fill-opacity="0.66666669" transform="scale(0.999973 1)" d="M1575.42 2391.05C1581.83 2394.13 1582.07 2392.5 1588.2 2389.62L1589.04 2394.06C1567.19 2413.63 1545.29 2435.1 1524 2455.98C1513.22 2466.55 1500.8 2483.81 1490.36 2493.31C1493.11 2485.41 1533 2427.92 1537.93 2426.25L1539.48 2426.69C1546.23 2423.05 1551.62 2418.19 1556.75 2410.96C1560.34 2408.45 1570.7 2395.84 1575.42 2391.05Z"/><path fill="#FDFBFC" fill-opacity="0.082352944" transform="scale(0.999973 1)" d="M1579.92 2373.59C1592.63 2363.42 1616.32 2338.18 1628.97 2325.38L1630.62 2330.91C1636.45 2332.7 1643.15 2330.33 1649.24 2329.26C1634.96 2339.47 1596.02 2366.35 1586.21 2381.04C1580.91 2384.97 1579.99 2385.71 1575.42 2391.05C1570.7 2395.84 1560.34 2408.45 1556.75 2410.96L1553.17 2404.81C1561.43 2394.01 1571.14 2383.92 1579.92 2373.59Z"/><path fill="#EFEFEE" fill-opacity="0.22352941" transform="scale(0.999973 1)" d="M1728.26 2171.91L1734.6 2173.24C1732.5 2179.29 1732.06 2177.47 1732.91 2181.79C1751.52 2189.58 1771.34 2177.53 1786.35 2179.03C1782.6 2181.49 1777.61 2184.54 1774.05 2187.18C1750.82 2204.3 1728.1 2176.59 1709.39 2203.64C1707.46 2206.43 1702.36 2211.85 1700.98 2214.76C1696.97 2219.39 1668.8 2254.83 1666.27 2254.84C1667.34 2249.2 1688.84 2212.93 1693.05 2209.34L1694.48 2212.19C1702.72 2211.03 1720.82 2184.56 1726.8 2175.21L1726.35 2171.81L1728.26 2171.91Z"/><path fill="#817E7F" fill-opacity="0.52941179" transform="scale(0.999973 1)" d="M974.832 2971.54L975.852 2968.81C980.811 2967.05 989.499 2971.76 995.765 2973.53C1000.14 2975.61 1027.92 2987.46 1028.98 2988.25C1055.4 2996.91 1067.31 3010.64 1091.08 3022.28C1095.55 3026.52 1112.77 3041.88 1113.78 3048.24L1112.37 3046.03L1112.18 3049.49C1110.4 3048.74 1108.15 3047.98 1106.54 3046.9C1102.6 3037.38 1082.82 3025.4 1075.12 3021.37C1061.17 3009.01 1033.69 2992.9 1016.71 2990.68C1003.6 2985.61 987.142 2979.21 974.832 2971.54Z"/><path fill="#3A3739" fill-opacity="0.77254903" transform="scale(0.999973 1)" d="M1118.27 3210.18C1123.58 3212.65 1158.77 3219.61 1162.83 3217.87C1189.03 3214.37 1177.5 3224.7 1195.19 3235.31C1188.45 3234.59 1181.83 3230.82 1175.7 3231.18C1180.09 3237.93 1184.28 3239.56 1189.42 3244.87C1180.64 3242.08 1168.46 3235.5 1158.48 3232.09C1142.9 3226.77 1122.78 3221.69 1108.28 3213.8L1118.27 3210.18Z"/><path fill="#D9D7D9" fill-opacity="0.094117649" transform="scale(0.999973 1)" d="M1162.83 3217.87L1160.58 3213.72C1153.41 3212.3 1140.09 3205.72 1133.22 3201.96L1132.75 3197.42C1139.1 3190.8 1139.82 3193.18 1147.47 3190.58C1159.99 3197.56 1191.82 3220.76 1202.73 3219.25L1205 3222.07C1201.83 3228.79 1199.28 3228.09 1196.57 3234.33L1195.19 3235.31C1177.5 3224.7 1189.03 3214.37 1162.83 3217.87Z"/><path fill="#D9D7D9" fill-opacity="0.22745098" transform="scale(0.999973 1)" d="M1885.15 1572.28C1886.74 1572.76 1888.32 1573.24 1889.9 1573.71C1909.93 1563.53 1926.31 1546.72 1947.22 1539.12C1939.69 1546.78 1928.44 1552.6 1919.79 1558.31C1904.79 1568.2 1889.1 1578.39 1875.1 1590.96C1870.66 1593.75 1864.23 1597.56 1861.37 1603.05C1862.59 1605.98 1862.15 1605.69 1863.9 1607.72C1845.19 1617.93 1815.91 1632.12 1798.82 1645.19C1801.52 1641 1803.14 1638.59 1806.15 1634.68C1834.11 1626.97 1859.64 1587.18 1885.15 1572.28Z"/><path fill="#555254" fill-opacity="0.76078433" transform="scale(0.999973 1)" d="M712.28 2780.24C712.043 2767.7 712.472 2746.67 717.38 2735.82L719.812 2735.79C729.308 2751.68 715.709 2757.23 721.707 2780.21C727.426 2802.12 750.701 2822.2 765.059 2831.51C760.255 2833.93 759.836 2834.39 754.595 2835.15C736.821 2823.51 721.681 2804.68 712.28 2780.24Z"/><path fill="#EFEFEE" fill-opacity="0.25882354" transform="scale(0.999973 1)" d="M1462.17 3644.21L1464.39 3643.87C1467.85 3652.12 1467.88 3655.38 1469.26 3665.05C1478.88 3745.93 1479.13 3821.63 1468.68 3902.68C1467.69 3888.96 1465.22 3833 1467.66 3822.38C1469.29 3833.34 1467.29 3851.13 1469.6 3861.51C1472.13 3843.15 1473.3 3824.47 1473.08 3805.77C1474.72 3773.28 1475.36 3731.57 1470.39 3699.95L1469.8 3694.11C1466.39 3701.78 1469.31 3735.06 1467.72 3745.29C1465.75 3738.32 1466.38 3665.71 1462.17 3644.21Z"/><path fill="#817E7F" fill-opacity="0.83137256" transform="scale(0.999973 1)" d="M1586.21 2381.04L1587.57 2380.18C1612.99 2363.92 1659.5 2317.4 1683.75 2323C1680.32 2327.29 1664.46 2331.42 1657.15 2337.23C1634.03 2355.62 1611.89 2372.74 1588.2 2389.62C1582.07 2392.5 1581.83 2394.13 1575.42 2391.05C1579.99 2385.71 1580.91 2384.97 1586.21 2381.04Z"/><path fill="#EFEFEE" fill-opacity="0.10588235" transform="scale(0.999973 1)" d="M1821.77 2163.08L1823.57 2165.97C1817.32 2176.84 1798.4 2171.04 1786.35 2179.03C1771.34 2177.53 1751.52 2189.58 1732.91 2181.79C1732.06 2177.47 1732.5 2179.29 1734.6 2173.24C1750.2 2166.34 1793.79 2172.19 1821.77 2163.08Z"/><path fill="#686467" fill-opacity="0.80392158" transform="scale(0.999973 1)" d="M892.101 2834.41C914.301 2849.84 952.47 2875.53 973.201 2894.55L965.311 2894.45L964.037 2896.48L965.066 2900.39C946.628 2887.52 914.839 2855.98 896.331 2848.93L886.285 2841.64L892.101 2834.41Z"/><path fill="#555254" fill-opacity="0.7019608" transform="scale(0.999973 1)" d="M1924.97 1095.54C1941.6 1066.43 1954.75 1039.54 1969.68 1008.67C1971.81 1014.25 1971.22 1014.05 1974.43 1017.99C1964.69 1042.74 1942.64 1080.57 1929.65 1103.42C1925.38 1100.23 1927.06 1102.55 1924.97 1095.54Z"/><path fill="#EFEFEE" fill-opacity="0.050980393" transform="scale(0.999973 1)" d="M1528.54 2402.04C1536.87 2376.16 1549.91 2333.51 1560.32 2309.72C1560.01 2317.97 1559.3 2322.34 1557.82 2330.39C1560.9 2332.92 1561.38 2332.49 1565.03 2332.95C1563.47 2336.05 1562.3 2338.2 1560.58 2341.12L1560.98 2343.98L1565.03 2346.37C1557.93 2360.32 1537.38 2389.62 1528.54 2402.04Z"/><path fill="#EFEFEE" fill-opacity="0.25098041" transform="scale(0.999973 1)" d="M950.007 2960.67C944.188 2956.09 931.708 2950.14 928.67 2944.12L929.287 2940.15C932.609 2938.02 935.839 2936.17 939.21 2934.23C952.533 2942.7 961.398 2950.44 973.957 2960.15C981.29 2965.82 987.633 2966.77 995.765 2973.53C989.499 2971.76 980.811 2967.05 975.852 2968.81L974.832 2971.54C967.358 2970.62 958.162 2963.73 950.007 2960.67Z"/><path fill="#3A3739" transform="scale(0.999973 1)" d="M1660.12 2429.58C1654.44 2430.38 1656.69 2431.51 1652.75 2428.01L1652.69 2422.79C1656.57 2414.67 1674.24 2402 1680.18 2403.26L1680.6 2407.66L1688.02 2408.12C1682.33 2418.61 1675.34 2432.25 1669.13 2441.66C1667.42 2437.37 1668.24 2438.88 1665.28 2435.88C1660.18 2439.15 1658.04 2439.93 1652.58 2442.04C1654.56 2435.58 1656.24 2434.66 1660.12 2429.58Z"/><path fill="#413E3F" transform="scale(0.999973 1)" d="M1660.12 2429.58C1654.44 2430.38 1656.69 2431.51 1652.75 2428.01L1652.69 2422.79C1656.57 2414.67 1674.24 2402 1680.18 2403.26L1680.6 2407.66C1672.02 2414.11 1665.15 2417.71 1660.12 2429.58Z"/><path fill="#413E3F" fill-opacity="0.86666667" transform="scale(0.999973 1)" d="M1693.46 2192.58C1696.79 2198.8 1695.94 2195.39 1696.16 2203.13L1693.05 2209.34C1688.84 2212.93 1667.34 2249.2 1666.27 2254.84C1656.87 2261.87 1657.6 2262.05 1647.43 2260.27C1661.72 2240.86 1678.69 2213.65 1693.46 2192.58Z"/><path fill="#555254" fill-opacity="0.76078433" transform="scale(0.999973 1)" d="M1430.92 2572.45C1433.93 2566.79 1436.32 2562.44 1439.62 2557.11L1447.79 2556.95C1436.5 2580.61 1418.82 2616.69 1406.76 2639.72C1402.78 2644.6 1400.07 2653.48 1396.16 2659.5C1397.64 2652.7 1413.65 2603.26 1416.58 2597.24L1418.07 2597.12C1421.49 2593.53 1425.95 2581.39 1429.3 2575.32L1430.92 2572.45Z"/><path fill="#D9D7D9" fill-opacity="0.23137255" transform="scale(0.999973 1)" d="M1394.05 279.983C1396.6 299.414 1393.08 331.191 1394.52 354.648C1396.63 388.844 1396.89 407.859 1405.86 441.551C1408.41 451.145 1415.81 476.9 1417.52 485.272L1413.4 481.779C1407.06 456.387 1400.07 432.784 1394.7 406.738L1394.33 396.436C1394.58 386.722 1392.24 328.644 1390.13 321.259C1384.58 338.158 1387.68 366.145 1383.89 385.719C1379.17 369.244 1390.92 298.96 1394.05 279.983Z"/><path fill="#686467" fill-opacity="0.76862746" transform="scale(0.999973 1)" d="M1821.77 2163.08C1838.48 2161.06 1853.31 2157.89 1869.69 2155.41C1847.31 2167.03 1841.88 2167.48 1819.91 2184.89L1810.92 2186.1L1809.51 2183.5L1810.61 2179.83C1803.62 2171.44 1785.34 2187.64 1774.05 2187.18C1777.61 2184.54 1782.6 2181.49 1786.35 2179.03C1798.4 2171.04 1817.32 2176.84 1823.57 2165.97L1821.77 2163.08Z"/><path fill="#817E7F" fill-opacity="0.39607844" transform="scale(0.999973 1)" d="M1318.95 3122.9C1320.18 3128 1320.16 3129.46 1322.58 3133.47C1324.71 3127.05 1321.76 3041.88 1324.67 3020.98C1326.22 3038.12 1325.16 3078.5 1324.79 3097.16C1324.47 3113.28 1333.01 3196.2 1330.48 3202.34C1322.64 3187.49 1319.91 3142 1318.95 3122.9Z"/><path fill="#918F94" fill-opacity="0.41176471" transform="scale(0.999973 1)" d="M598.363 2591.47L608.328 2604.71C625.427 2627.54 650.166 2646.35 670.438 2663.4C677.113 2669.02 687.638 2676.66 693.149 2683.14C681.16 2679.16 632.998 2636.13 620.97 2625.03C621.817 2634.18 654.155 2659.77 660.633 2669.48C636.528 2654.43 610.614 2626.87 598.857 2592.94L598.363 2591.47Z"/><path fill="#A2A0A1" fill-opacity="0.29411766" transform="scale(0.999973 1)" d="M1819.51 1270.03L1821.5 1280.14C1800.09 1315.27 1782.18 1335.01 1755.2 1361.08C1762.07 1349.53 1766.63 1342.27 1775 1332.44C1791.14 1313.51 1805.38 1291.85 1819.51 1270.03Z"/><path fill="#A2A0A1" fill-opacity="0.47843137" transform="scale(0.999973 1)" d="M1945.84 1569.25C1955.72 1562.81 2016.03 1535.29 2026.45 1532.89C2016.78 1541.51 1954.18 1583.1 1946.98 1582.96C1948.51 1579.83 1952.8 1576.82 1955.4 1574.57C1964.54 1570.16 1972.13 1564.49 1980.58 1558.05C1974.11 1560.58 1950.64 1571.06 1945.84 1569.25Z"/><path fill="#686467" fill-opacity="0.69803923" transform="scale(0.999973 1)" d="M660.633 2669.48C654.155 2659.77 621.817 2634.18 620.97 2625.03C632.998 2636.13 681.16 2679.16 693.149 2683.14C697.99 2686.74 706.079 2692.18 709.977 2696.95C701.033 2694.37 692.223 2684.01 686.015 2684.49C685.867 2687.53 689.734 2692.49 691.665 2695.72C684.265 2691.42 667.598 2675.94 660.633 2669.48Z"/><path fill="#FDFBFC" fill-opacity="0.015686275" transform="scale(0.999973 1)" d="M1461.14 3596.45C1464.27 3603.88 1469.12 3619.76 1472.63 3623.36C1475 3619.91 1474.25 3621.92 1474.98 3617.41L1477.48 3618.1C1479.98 3624.78 1480.72 3633.7 1478.51 3640.72C1475.03 3642.54 1474.49 3642.01 1470.69 3641.74C1468.61 3647.49 1469.94 3657.13 1469.26 3665.05C1467.88 3655.38 1467.85 3652.12 1464.39 3643.87L1462.17 3644.21C1461.09 3628.6 1456.67 3609.14 1461.14 3596.45Z"/><path fill="#918F94" fill-opacity="0.50196081" transform="scale(0.999973 1)" d="M2388.08 284.742C2389.33 279.669 2389.49 275.448 2391.97 273.62C2392.22 280.771 2392.33 287.929 2392.32 295.088C2388.8 317.65 2382.89 353.247 2376.52 374.316L2376.45 362.204C2373.27 364.304 2370.51 382.586 2364.93 392.7C2367.31 379.632 2372.51 360.713 2375.74 347.112C2381.01 324.949 2384.05 306.92 2388.08 284.742Z"/><path fill="#FDFBFC" fill-opacity="0.0078431377" transform="scale(0.999973 1)" d="M1223.39 3123.55C1229.33 3129.57 1239.42 3144.35 1243.88 3152.63C1243.1 3161.17 1244.33 3162.54 1238.23 3166.29C1233.19 3159.66 1222.83 3144.85 1217.18 3141.28L1207.96 3128.99L1208.21 3128.28C1212.57 3127.96 1216.27 3129.01 1220.89 3128.68L1223.39 3123.55Z"/><path fill="#555254" fill-opacity="0.74509805" transform="scale(0.999973 1)" d="M1253.26 3184.64C1266.65 3197.69 1282.4 3225.49 1294.19 3236.93C1296.01 3243.66 1297.27 3246.2 1296 3253.12C1285.25 3238.11 1271.92 3224.68 1261.66 3209.95C1258.23 3198.74 1250.46 3197.67 1253.26 3184.64Z"/><path fill="#FDFBFC" fill-opacity="0.027450981" transform="scale(0.999973 1)" d="M920.74 2869.25C937.752 2882.38 965.631 2903.27 980.652 2919.96L942.289 2896.84C933.762 2890.8 921.283 2883.96 912.042 2878.02C918.658 2875.91 917.699 2876.96 920.74 2869.25Z"/><path fill="#555254" fill-opacity="0.78431374" transform="scale(0.999973 1)" d="M997.382 2999.64L998.697 2996.86C1012.65 2994.88 1037.06 3012.97 1043.27 3009.21C1049.38 3012.22 1057 3015.63 1062.77 3019.38L1063.31 3022.82C1058.56 3021.89 1053.81 3020.92 1049.06 3019.89L1047.29 3021.97C1047.94 3024.35 1048.11 3025.4 1049.04 3027.58C1033.42 3020.5 1014.63 3007.86 997.382 2999.64Z"/><path fill="#FDFBFC" fill-opacity="0.035294119" transform="scale(0.999973 1)" d="M804.667 2776.43L805.892 2777.07C826.376 2788.22 839.721 2808.55 859.937 2823.03C853.219 2821.83 847.801 2821.06 843.22 2830.31C842.681 2829.72 834.501 2817.07 833.087 2815.09C823.666 2802.12 814.193 2789.24 804.667 2776.43Z"/><path fill="#D9D7D9" fill-opacity="0.29411766" transform="scale(0.999973 1)" d="M1025.59 2965.05L1035.01 2969.06C1053.64 2988.14 1073.08 3002.16 1091.08 3022.28C1067.31 3010.64 1055.4 2996.91 1028.98 2988.25C1034.14 2988.48 1035.11 2989.41 1039.64 2986.83C1037.58 2982.15 1035.89 2979.23 1033.5 2974.99C1031.45 2972.04 1027.9 2967.91 1025.59 2965.05Z"/><path fill="#EFEFEE" fill-opacity="0.074509807" transform="scale(0.999973 1)" d="M950.007 2960.67C958.162 2963.73 967.358 2970.62 974.832 2971.54C987.142 2979.21 1003.6 2985.61 1016.71 2990.68C1019.5 2992.65 1022.3 2994.58 1025.12 2996.46L1023.94 2996.01C1020.79 2998.3 1021.42 2997.9 1017.97 2997.6C1014.81 2995.73 991.785 2987.71 987.498 2986.12C973.041 2980.2 957.225 2971.8 942.373 2965.36L948.729 2963.95L950.007 2960.67Z"/><path fill="#555254" fill-opacity="0.75294119" transform="scale(0.999973 1)" d="M1584.05 2237.31C1581.48 2246.87 1550.75 2328.54 1546.3 2337.31C1545.87 2333.77 1546.46 2335.31 1544.29 2332.87L1538.55 2337.74C1550.49 2307.06 1568.4 2263.96 1584.05 2237.31Z"/><path fill="#555254" fill-opacity="0.74509805" transform="scale(0.999973 1)" d="M1181.11 3054.34C1184.99 3058.27 1189.76 3062.8 1193.39 3067.02C1197.46 3074.03 1211.96 3087.64 1217.77 3092.29C1217.32 3104.62 1222.18 3107.25 1225.77 3119.56C1219.41 3113.79 1210.83 3100.09 1203.63 3092.03C1197.46 3082.02 1184.83 3069.92 1176.81 3061.18L1181.11 3054.34Z"/><path fill="#FDFBFC" fill-opacity="0.047058824" transform="scale(0.999973 1)" d="M1102.49 2997.18L1104.85 2998.68L1106.22 3000.71C1114.49 3012.74 1134.17 3028.88 1138.67 3046.19L1137.73 3049.29C1122.06 3033.96 1108.99 3017.56 1092.4 3001.88C1100.2 3001.37 1098.56 3003.24 1102.49 2997.18Z"/><path fill="#EFEFEE" fill-opacity="0.11764706" transform="scale(0.999973 1)" d="M1584.02 2346.02C1584.18 2336.17 1611.35 2288.69 1617.44 2279.78C1615.37 2287.87 1614.05 2291.18 1610.73 2298.43L1610.85 2302.11L1614 2303.92C1616.53 2302.08 1616.86 2301.04 1619.65 2301.09C1615.36 2309.72 1590.38 2342.32 1584.02 2346.02Z"/><path fill="#FDFBFC" fill-opacity="0.011764706" transform="scale(0.999973 1)" d="M1002.65 3117.71C997.314 3107.52 992.885 3100.64 992.207 3087.86C996.942 3071.6 1022.48 3083.12 1032.72 3086.11C1020.06 3086.88 1015.7 3084.21 1005.59 3095.22C998.898 3092.24 1005.48 3087.5 999.545 3090.92C1000.58 3104.19 1008.91 3111.03 1009.52 3125.22L1002.65 3117.71Z"/><path fill="#918F94" fill-opacity="0.76078433" transform="scale(0.999973 1)" d="M1945.56 1616.7C1959.07 1609.87 1973.68 1604.9 1988.4 1597.55C1982.17 1603.77 1961.01 1621.82 1958.27 1625.39C1950.9 1634.8 1924.09 1637.93 1914.23 1633.83C1925.23 1633.67 1944.89 1626.58 1953.15 1617.95L1952.29 1616.34L1945.56 1616.7Z"/><path fill="#A2A0A1" fill-opacity="0.51764709" transform="scale(0.999973 1)" d="M1467.72 3745.29C1469.31 3735.06 1466.39 3701.78 1469.8 3694.11L1470.39 3699.95C1469.39 3714.86 1468.68 3796.12 1473.08 3805.77C1473.3 3824.47 1472.13 3843.15 1469.6 3861.51C1467.29 3851.13 1469.29 3833.34 1467.66 3822.38L1467.72 3745.29Z"/><path fill="#A2A0A1" fill-opacity="0.4509804" transform="scale(0.999973 1)" d="M977.132 2990.43C963.681 2984.17 931.587 2967.6 921.012 2957.58L921.54 2956.03C929.799 2958.05 934.595 2960.82 942.373 2965.36C957.225 2971.8 973.041 2980.2 987.498 2986.12C982.933 2986.33 979.669 2985.12 977.068 2988.41L977.132 2990.43Z"/><path fill="#555254" fill-opacity="0.66274512" transform="scale(0.999973 1)" d="M1810.92 2186.1L1819.91 2184.89C1813.24 2192.71 1793.42 2219.76 1787.26 2224.86C1785.78 2220.67 1786.5 2221.94 1784.01 2219.08C1780.95 2220.93 1779.26 2222.25 1776.35 2224.56C1778.81 2216.48 1787.25 2208.39 1792.29 2203.5C1798.9 2198.01 1804.65 2192.25 1810.92 2186.1Z"/><path fill="#686467" fill-opacity="0.71764708" transform="scale(0.999973 1)" d="M1207.96 3128.99L1217.18 3141.28C1222.98 3156.8 1240.94 3166.72 1238.17 3180.88C1226.1 3165.85 1212.74 3151.83 1200.46 3136.81C1204.35 3134.56 1202.96 3135.67 1206.05 3131.3L1207.96 3128.99Z"/><path fill="#817E7F" fill-opacity="0.64705884" transform="scale(0.999973 1)" d="M1679.94 2179.81L1681.44 2177.89C1689.79 2174.99 1721.62 2166.43 1728.26 2171.91L1726.35 2171.81C1706.91 2174.13 1708.32 2191.97 1696.16 2203.13C1695.94 2195.39 1696.79 2198.8 1693.46 2192.58C1694.59 2189.8 1701.75 2179.04 1703.71 2175.99C1695.91 2177.6 1687.77 2179.7 1679.94 2179.81Z"/><path fill="#555254" fill-opacity="0.73333335" transform="scale(0.999973 1)" d="M1945.84 1569.25C1950.64 1571.06 1974.11 1560.58 1980.58 1558.05C1972.13 1564.49 1964.54 1570.16 1955.4 1574.57C1942.42 1564.82 1890.98 1602.9 1873.86 1603.07C1876.42 1599.78 1885.68 1595.44 1889.5 1593.35C1908.22 1585.05 1927 1577.01 1945.84 1569.25Z"/><path fill="#3A3739" fill-opacity="0.97254902" transform="scale(0.999973 1)" d="M1902.72 1615.42C1899.08 1619.41 1870.88 1626.19 1867.57 1622.19C1872.47 1612.65 1901.39 1602.23 1911.02 1604.6C1908.49 1607.87 1905.05 1612.08 1902.72 1615.42Z"/><path fill="#413E3F" fill-opacity="0.79215688" transform="scale(0.999973 1)" d="M2079.03 1474.03C2094.05 1466.53 2125.32 1452.29 2140.42 1446.8C2130.24 1457.75 2117.24 1470.73 2104.52 1474.69L2105.65 1472.32L2105.16 1470.81C2093.43 1469.23 2088.73 1476.38 2079.03 1474.03Z"/><path fill="#FDFBFC" fill-opacity="0.054901961" transform="scale(0.999973 1)" d="M1726.35 2171.81L1726.8 2175.21C1720.82 2184.56 1702.72 2211.03 1694.48 2212.19L1693.05 2209.34L1696.16 2203.13C1708.32 2191.97 1706.91 2174.13 1726.35 2171.81Z"/><path fill="#A2A0A1" fill-opacity="0.29019609" transform="scale(0.999973 1)" d="M1016.71 2990.68C1033.69 2992.9 1061.17 3009.01 1075.12 3021.37C1070.68 3021.43 1067.12 3020.37 1062.77 3019.38C1057 3015.63 1049.38 3012.22 1043.27 3009.21C1039.18 3005.32 1023.5 2999.8 1017.97 2997.6C1021.42 2997.9 1020.79 2998.3 1023.94 2996.01L1025.12 2996.46C1022.3 2994.58 1019.5 2992.65 1016.71 2990.68Z"/><path fill="#686467" fill-opacity="0.55686277" transform="scale(0.999973 1)" d="M1217.18 3141.28C1222.83 3144.85 1233.19 3159.66 1238.23 3166.29C1243.88 3174.01 1247.1 3177.85 1253.26 3184.64C1250.46 3197.67 1258.23 3198.74 1261.66 3209.95C1257.13 3205.66 1242.06 3186.35 1238.17 3180.88C1240.94 3166.72 1222.98 3156.8 1217.18 3141.28Z"/><path fill="#817E7F" fill-opacity="0.61960787" transform="scale(0.999973 1)" d="M987.498 2986.12C991.785 2987.71 1014.81 2995.73 1017.97 2997.6C1023.5 2999.8 1039.18 3005.32 1043.27 3009.21C1037.06 3012.97 1012.65 2994.88 998.697 2996.86L997.382 2999.64C992.642 2998.71 982.154 2992.93 977.132 2990.43L977.068 2988.41C979.669 2985.12 982.933 2986.33 987.498 2986.12Z"/><path fill="#A2A0A1" fill-opacity="0.30588236" transform="scale(0.999973 1)" d="M2388.08 284.742C2388.74 273.107 2390.24 230.898 2394.06 223.246C2397.97 240.312 2395.76 277.174 2392.32 295.088C2392.33 287.929 2392.22 280.771 2391.97 273.62C2389.49 275.448 2389.33 279.669 2388.08 284.742Z"/><path fill="#817E7F" fill-opacity="0.70588237" transform="scale(0.999973 1)" d="M1485.66 2541.64L1488.58 2544.36C1484.78 2549.46 1477.52 2557.39 1476.09 2563.14L1478.98 2564.98C1474.2 2571.64 1461.47 2582.19 1455.37 2585.63C1460.51 2569.05 1475.61 2553.18 1485.66 2541.64Z"/><path fill="#817E7F" fill-opacity="0.68235296" transform="scale(0.999973 1)" d="M1470.39 3699.95C1475.36 3731.57 1474.72 3773.28 1473.08 3805.77C1468.68 3796.12 1469.39 3714.86 1470.39 3699.95Z"/><path fill="#555254" fill-opacity="0.61176473" transform="scale(0.999973 1)" d="M1461.47 3571.78C1466.75 3583.58 1471.62 3603.88 1474.98 3617.41C1474.25 3621.92 1475 3619.91 1472.63 3623.36C1469.12 3619.76 1464.27 3603.88 1461.14 3596.45C1457.66 3587.76 1455.69 3582.56 1452.97 3573.39C1456.88 3578.58 1457.38 3582.79 1462.26 3586.32C1463.46 3580.88 1462.41 3577.39 1461.47 3571.78Z"/><path fill="#3A3739" fill-opacity="0.73725492" transform="scale(0.999973 1)" d="M1284.63 1985.94C1288.51 1999.13 1291.95 2010.14 1296.41 2022.95C1294.9 2029.27 1295.15 2029.71 1291.51 2034.23C1287.77 2022.22 1284.03 2008.64 1278.83 1997.91C1283.02 1992.71 1282.77 1992.89 1284.63 1985.94Z"/><path fill="#A2A0A1" fill-opacity="0.3137255" transform="scale(0.999973 1)" d="M1021.65 2972.76C1013.25 2976.61 987.56 2963 981.199 2954.45L981.834 2951.69L987.805 2950.77C997.681 2957.07 1012.33 2965.68 1021.65 2972.76Z"/><path fill="#686467" fill-opacity="0.6901961" transform="scale(0.999973 1)" d="M2364.93 392.7C2370.51 382.586 2373.27 364.304 2376.45 362.204L2376.52 374.316C2373.03 388.6 2368.84 407.542 2364.39 420.866C2363.58 411.605 2364.69 412.218 2361.16 406.322C2361.6 403.337 2363.99 395.902 2364.93 392.7Z"/><path fill="#3A3739" fill-opacity="0.8392157" transform="scale(0.999973 1)" d="M871.387 2896.3L874.906 2896.27C878.014 2904.35 880.424 2910.57 884.019 2918.34L883.098 2926.4C881.353 2927.1 880.443 2927.6 878.642 2927.9C872.483 2916.18 867.204 2905.98 861.625 2893.72C865.195 2896.46 866.034 2899.32 870.267 2900.57L871.387 2896.3Z"/><path fill="#686467" fill-opacity="0.49019608" transform="scale(0.999973 1)" d="M1176.81 3061.18C1164.92 3047.72 1158.16 3046.03 1147.93 3035.13L1147.8 3032.54C1155.16 3030.91 1175.65 3047.5 1181.11 3054.34L1176.81 3061.18Z"/><path fill="#FDFBFC" fill-opacity="0.031372551" transform="scale(0.999973 1)" d="M1767.84 2210.75C1775.99 2205.18 1784.2 2199.79 1792.47 2194.6L1792.29 2203.5C1787.25 2208.39 1778.81 2216.48 1776.35 2224.56L1771.81 2226.79C1772.48 2220.49 1774.17 2219.45 1773.49 2213.57L1767.84 2210.75Z"/><path fill="#686467" fill-opacity="0.56862748" transform="scale(0.999973 1)" d="M1294.19 3236.93C1299.99 3244.8 1316.32 3266.73 1316.52 3277.34C1311.6 3273.59 1298.84 3259.1 1296 3253.12C1297.27 3246.2 1296.01 3243.66 1294.19 3236.93Z"/><path fill="#D9D7D9" fill-opacity="0.3019608" transform="scale(0.999973 1)" d="M942.918 2905.78C935.099 2900.73 910.601 2885.43 906.039 2876.74L906.987 2875.33L912.042 2878.02C921.283 2883.96 933.762 2890.8 942.289 2896.84L942.918 2905.78Z"/><path fill="#FDFBFC" fill-opacity="0.011764706" transform="scale(0.999973 1)" d="M1523.32 731.43C1533.2 738.419 1537.03 732.919 1543.19 738.149L1544.24 742.237C1541.32 749.374 1543.28 746.467 1537.76 750.679C1536.61 749.679 1535.46 748.679 1534.31 747.679C1534.65 753.816 1534.93 759.961 1535.14 766.111C1531.1 754.962 1527.16 742.796 1523.32 731.43Z"/><path fill="#FDFBFC" fill-opacity="0.25882354" transform="scale(0.999973 1)" d="M1185.73 3043.2C1191.88 3048.63 1212.8 3082.75 1217.77 3092.29C1211.96 3087.64 1197.46 3074.03 1193.39 3067.02L1195.25 3064.56C1193.57 3054.1 1187.61 3054.66 1185.73 3043.2Z"/><path fill="#D9D7D9" fill-opacity="0.42745098" transform="scale(0.999973 1)" d="M1062.77 3019.38C1067.12 3020.37 1070.68 3021.43 1075.12 3021.37C1082.82 3025.4 1102.6 3037.38 1106.54 3046.9C1094.77 3039.88 1074.95 3027.11 1063.31 3022.82L1062.77 3019.38Z"/><path fill="#555254" fill-opacity="0.73333335" transform="scale(0.999973 1)" d="M1390.13 414.294C1387.76 399.901 1384.83 363.785 1389.52 352.751C1392.27 365.629 1392.54 382.032 1394.33 396.436L1394.7 406.738C1393.05 400.028 1391.3 393.373 1389.43 386.778C1389.9 396.456 1390.41 404.545 1390.13 414.294Z"/><path fill="#817E7F" fill-opacity="0.68627453" transform="scale(0.999973 1)" d="M1141.61 3177.73C1135.97 3178.52 1122.59 3168.32 1118.47 3162.76L1120.61 3161.68C1130.26 3164.03 1145.94 3169.96 1154.1 3177.24L1151.64 3177.02C1148.11 3176.67 1146.56 3176.1 1143.14 3174.97L1141.7 3176.52L1141.61 3177.73Z"/><path fill="#FDFBFC" fill-opacity="0.031372551" transform="scale(0.999973 1)" d="M923.856 2918.64C917.943 2916.68 909.641 2913.7 905.497 2907.56C912.061 2904.37 937.647 2915.26 943.701 2921.61C935.776 2918.03 931.315 2914.67 923.856 2918.64Z"/><path fill="#817E7F" fill-opacity="0.64313728" transform="scale(0.999973 1)" d="M868.149 2827.93C873.126 2825.34 876.075 2826.1 881.348 2826.38L892.101 2834.41L886.285 2841.64C880.72 2838.22 873.6 2832.22 868.149 2827.93Z"/><path fill="#3A3739" fill-opacity="0.7647059" transform="scale(0.999973 1)" d="M1454.72 3550.54C1456.81 3556.64 1460.13 3565.54 1461.47 3571.78C1462.41 3577.39 1463.46 3580.88 1462.26 3586.32C1457.38 3582.79 1456.88 3578.58 1452.97 3573.39L1451.73 3567.94C1455.64 3561.01 1454.32 3561.56 1454.72 3550.54Z"/><path fill="#EFEFEE" fill-opacity="0.12156863" transform="scale(0.999973 1)" d="M1424.98 2560.85L1426.52 2569.39C1429.19 2570.43 1427.98 2570.69 1430.18 2569.01L1430.92 2572.45L1429.3 2575.32C1425.95 2581.39 1421.49 2593.53 1418.07 2597.12L1416.58 2597.24C1419.71 2584.35 1420.84 2573.98 1424.98 2560.85Z"/><path fill="#FDFBFC" fill-opacity="0.031372551" transform="scale(0.999973 1)" d="M1863.9 1607.72C1862.15 1605.69 1862.59 1605.98 1861.37 1603.05C1864.23 1597.56 1870.66 1593.75 1875.1 1590.96C1879.16 1595.05 1884.29 1593.66 1889.5 1593.35C1885.68 1595.44 1876.42 1599.78 1873.86 1603.07L1863.9 1607.72Z"/><path fill="#EFEFEE" fill-opacity="0.28235295" transform="scale(0.999973 1)" d="M1537.93 2426.25C1541.53 2418.05 1547.57 2410.32 1553.17 2404.81L1556.75 2410.96C1551.62 2418.19 1546.23 2423.05 1539.48 2426.69L1537.93 2426.25Z"/><path fill="#FDFBFC" fill-opacity="0.10588235" transform="scale(0.999973 1)" d="M1396.16 2659.5C1400.07 2653.48 1402.78 2644.6 1406.76 2639.72C1409.41 2643.44 1409.61 2644.59 1413.08 2645.99C1409.27 2650.83 1401.13 2662.38 1396.16 2659.5Z"/><path fill="#FDFBFC" fill-opacity="0.039215688" transform="scale(0.999973 1)" d="M855.411 2801.08L867.706 2806.25L871.232 2819.53C864.251 2814.91 857.074 2809.71 850.14 2804.86C851.094 2803.95 854.25 2801.89 855.411 2801.08Z"/><path fill="#FDFBFC" fill-opacity="0.16078432" transform="scale(0.999973 1)" d="M1809.51 2183.5L1810.92 2186.1C1804.65 2192.25 1798.9 2198.01 1792.29 2203.5L1792.47 2194.6C1797.04 2190 1804.01 2186.88 1809.51 2183.5Z"/><path fill="#FDFBFC" fill-opacity="0.16862746" transform="scale(0.999973 1)" d="M850.14 2804.86C845.606 2802.14 843.67 2802.4 841.597 2797.63C846.702 2795.85 850.286 2798.62 855.411 2801.08C854.25 2801.89 851.094 2803.95 850.14 2804.86Z"/></svg>