<?xml version="1.0" encoding="utf-8" ?><svg xmlns="http://www.w3.org/2000/svg" xmlns:xlink="http://www.w3.org/1999/xlink" viewBox="127 497 930 25"><clipPath id="cl_3"><rect width="1188.2433" height="938.71222"/></clipPath><g clip-path="url(#cl_3)"><path transform="matrix(0.990203 0 0 0.990203 0 -84.1672)" d="M693.761 595.969C705.754 596.498 719.467 596.223 731.606 596.253L797.013 596.418L972.123 597.555C995.457 597.602 1018.79 597.982 1042.11 598.693C1049.05 598.865 1061.64 598.254 1067.66 599.714L1067.89 600.372L1066.3 600.664C1059.39 601.574 1040.39 601.479 1032.49 601.631C1006.95 602.113 981.406 602.421 955.863 602.554L807.596 603.494C769.649 603.483 731.701 603.669 693.756 604.054L693.761 595.969Z"/><path transform="matrix(0.990203 0 0 0.990203 0 -84.1672)" d="M490.887 596.191L506.03 596.112L506.273 603.634C489.957 604.227 470.469 603.738 453.987 603.704C418.379 603.902 382.77 603.654 347.168 602.961L150.732 601.174C142.667 601.229 137.041 601.341 129.108 600.003C138.753 598.379 153.253 598.761 163.566 598.561C185.267 598.12 206.971 597.796 228.675 597.59L490.887 596.191Z"/><path transform="matrix(0.990203 0 0 0.990203 0 -84.1672)" d="M547.188 589.369C551.541 590.56 560.549 594.701 566.019 596.516L573.022 589.256L583.333 599.479L573.129 609.933L565.896 602.576C560.074 605.056 553.637 607.213 547.615 609.739C538.96 606.239 529.913 603.139 521.417 599.48C529.393 596.8 539.228 592.558 547.188 589.369Z"/><path transform="matrix(0.990203 0 0 0.990203 0 -84.1672)" d="M652.151 589.439C656.93 590.649 672.168 597.186 678.508 599.465L652.743 609.807L635.873 603.24C635.659 603.126 634.608 602.929 634.325 602.868C631.773 604.441 629.15 607.478 627.001 609.706C623.073 606.174 620.274 603.453 616.656 599.607C619.719 596.876 623.805 592.444 626.768 589.42C629.219 591.848 631.73 594.216 634.299 596.52C640.228 594.247 646.239 591.79 652.151 589.439Z"/><path transform="matrix(0.990203 0 0 0.990203 0 -84.1672)" d="M597.161 588.626C603.279 587.212 609.376 591.057 610.735 597.187C612.093 603.317 608.192 609.379 602.05 610.681C595.987 611.967 590.02 608.127 588.679 602.076C587.338 596.025 591.123 590.023 597.161 588.626Z"/></g></svg>