<?xml version="1.0" encoding="utf-8" ?><svg xmlns="http://www.w3.org/2000/svg" xmlns:xlink="http://www.w3.org/1999/xlink" width="298" height="83" viewBox="0 0 298 83"><clipPath id="cl_3"><rect y="-3.0517578e-05" width="298.30737" height="83.273102"/></clipPath><g clip-path="url(#cl_3)"><path transform="matrix(1.05409 0 0 1.05409 -163.384 -278.28)" d="M313.047 289.788L317.2 289.743C320.998 292.34 321.991 296.185 322.729 300.425C326.663 295.498 330.032 291.14 336.629 289.86C339.977 289.21 342.071 290.527 342.04 294.123C341.997 299.064 340.09 301.432 336.769 304.72C334.535 306.598 326.409 313.857 324.321 314.565C323.37 314.888 321.875 315.873 320.973 315.691L320.976 315.166C321.682 313.989 321.982 313.862 323.108 313C319.088 310.401 318.354 308.491 315.693 304.647C313.367 301.286 308.13 292.853 313.047 289.788ZM334.367 304.779C339.885 299.892 340.303 299.456 339.653 291.963C338.576 292.081 337.396 292.265 336.328 292.176C335.311 292.341 334.185 292.381 333.471 293.051L333.449 293.629C334.956 293.691 335.038 293.383 335.826 294.134C336.166 297.124 333.475 303.727 333.955 304.842L334.367 304.779ZM328.457 309.682L331.332 306.977C331.76 304.074 332.314 300.89 332.434 297.982L332.034 297.519C331.249 298.884 327.672 308.777 328.457 309.682ZM325.292 311.5C325.686 310.14 328.908 300.525 328.774 300.114L328.509 299.872C326.725 303.078 324.857 306.796 324.673 310.539C324.968 311.143 324.847 311.037 325.292 311.5ZM327.214 299.62C327.722 298.687 328.073 297.991 328.785 297.179C329.889 295.92 332.449 294.891 332.876 293.408C332.475 293.264 332.447 293.175 332.117 293.227C330.036 294.451 326.105 296.874 326.53 299.717L326.913 299.875L327.214 299.62ZM319.673 302.781C320.53 300.983 320.827 297.907 318.983 296.632C318.96 297.769 318.706 302.157 319.087 302.906L319.673 302.781Z"/><path fill="#EBEBE6" fill-opacity="0.0078431377" transform="matrix(1.05409 0 0 1.05409 -163.384 -278.28)" d="M328.509 299.872L328.774 300.114C328.908 300.525 325.686 310.14 325.292 311.5C324.847 311.037 324.968 311.143 324.673 310.539C324.857 306.796 326.725 303.078 328.509 299.872Z"/><path fill="#EBEBE6" fill-opacity="0.015686275" transform="matrix(1.05409 0 0 1.05409 -163.384 -278.28)" d="M332.117 293.227C332.447 293.175 332.475 293.264 332.876 293.408C332.449 294.891 329.889 295.92 328.785 297.179C328.073 297.991 327.722 298.687 327.214 299.62L326.913 299.875L326.53 299.717C326.105 296.874 330.036 294.451 332.117 293.227Z"/><path transform="matrix(1.05409 0 0 1.05409 -163.384 -278.28)" d="M247.275 286.451L248.008 286.535C248.531 286.981 248.687 287.049 248.719 287.945C248.765 289.667 248.379 291.372 247.596 292.906C245.668 296.681 241.121 300.475 238.809 304.302C236.639 307.894 236.174 312.117 233.564 315.26C229.237 317.329 221.956 307.061 219.948 304.251C216.915 299.951 211.939 287.464 222.824 289.926C226.742 290.812 230.476 296.91 232.381 300.376C235.898 294.744 241.029 289.028 247.275 286.451ZM229.803 311.606C230.264 309.673 230.836 307.697 230.883 305.721L230.598 305.549C228.924 307.021 228.778 308.097 227.535 309.944C227.718 308.375 227.797 307.203 228.308 305.688C228.451 304.536 228.724 304.138 228.274 303.33C226.835 303.503 227.019 303.702 225.889 303.199C224.7 301.702 224.982 300.092 225.003 298.141C224.298 299.294 223.712 300.477 222.689 301.324L222.38 301.117C222.49 299.567 222.892 297.986 222.355 296.776C221.724 296.524 221.364 296.392 220.712 296.205C220.839 295.085 221.82 293.867 223.076 293.941C224.517 295.224 223.867 296.204 225.039 296.871C225.744 296.35 225.841 296.391 226.153 295.602C225.566 292.822 220.636 292.273 218.329 292.172C216.307 296.839 226.224 308.705 229.803 311.606ZM233.144 303.681C234.77 301.987 240.382 296.923 240.432 294.861L240.139 294.636C238.364 296.313 233.204 300.999 232.816 303.186L233.144 303.681ZM244.579 292.188C244.536 292.294 244.493 292.401 244.451 292.508C244.215 294.806 237.731 301.002 237.995 302.479C238.431 302.316 244.675 295.025 245.482 294.023C246.274 292.701 247.128 291.016 246.29 289.608C244.617 289.016 241.63 290.862 241.605 292.263C243.015 292.051 243.201 291.981 244.579 292.188ZM232.307 309.827C232.876 308.611 233.213 307.875 233.643 306.612C233.254 306.093 233.465 306.26 233.09 306.027C232.446 307.231 231.88 308.052 231.697 309.398L231.969 309.836L232.307 309.827Z"/><path fill="#EBEBE6" fill-opacity="0.015686275" transform="matrix(1.05409 0 0 1.05409 -163.384 -278.28)" d="M240.139 294.636L240.432 294.861C240.382 296.923 234.77 301.987 233.144 303.681L232.816 303.186C233.204 300.999 238.364 296.313 240.139 294.636Z"/><path fill="#EBEBE6" fill-opacity="0.078431375" transform="matrix(1.05409 0 0 1.05409 -163.384 -278.28)" d="M244.579 292.188C244.813 293.204 244.76 293.2 245.482 294.023C244.675 295.025 238.431 302.316 237.995 302.479C237.731 301.002 244.215 294.806 244.451 292.508C244.493 292.401 244.536 292.294 244.579 292.188Z"/><path fill="#BFBCBA" fill-opacity="0.027450981" transform="matrix(1.05409 0 0 1.05409 -163.384 -278.28)" d="M233.09 306.027C233.465 306.26 233.254 306.093 233.643 306.612C233.213 307.875 232.876 308.611 232.307 309.827L231.969 309.836L231.697 309.398C231.88 308.052 232.446 307.231 233.09 306.027Z"/><path transform="matrix(1.05409 0 0 1.05409 -163.384 -278.28)" d="M288.11 289.795C289.777 289.717 290.661 289.451 291.932 290.348C296.113 298.605 282.591 309.887 277.626 315.372C277.015 316.047 274.702 317.765 273.811 317.694L273.447 316.98C273.492 315.699 273.315 316.053 273.91 315.047C274.697 314.827 274.982 314.821 275.622 314.318C275.721 313.841 275.929 305.168 275.865 304.685L275.468 304.706C274.343 305.66 273.651 306.617 273.316 308.063C274.608 309.856 274.338 309.528 273.493 311.533C269.555 310.486 261.673 299.899 261.773 295.501C261.81 293.862 262.739 293.106 263.863 292.104C266.727 291.548 268.096 291.624 270.954 291.817C272.496 293.997 274.246 298.759 275.007 301.363C278.476 294.922 281.08 292.029 288.11 289.795ZM290.297 295.632C291.027 290.496 286.402 291.446 284.138 294.08C283.321 295.031 282.742 297.623 283.401 298.771C286.225 297.546 285.843 294.138 288.852 293.18C288.97 299.977 286.011 302.684 281.615 307.478C280.109 309.12 278.464 310.449 277.678 312.614L277.938 313.063C279.801 311.717 290.121 300.51 290.354 297.557C290.401 296.969 290.362 296.245 290.297 295.632ZM277.627 305.139C278.853 304.115 280.994 297.24 281.548 295.315L281.362 294.615C276.5 299.242 278.264 299.136 277.627 305.139ZM266.81 297.455C267.75 296.664 268.955 295.857 269.384 294.761C268.662 293.617 265.804 294.079 264.462 294.128C263.882 295.187 263.706 295.097 263.77 296.099L264.285 296.342C264.832 295.805 265.056 295.528 265.535 294.925L266.109 294.896L266.528 295.34L266.432 295.875C266.332 296.445 266.309 296.593 266.335 297.186L266.81 297.455Z"/><path fill="#EBEBE6" fill-opacity="0.015686275" transform="matrix(1.05409 0 0 1.05409 -163.384 -278.28)" d="M288.852 293.18L289.621 293.149C290.324 294.038 290.028 294.555 290.297 295.632C290.362 296.245 290.401 296.969 290.354 297.557C290.121 300.51 279.801 311.717 277.938 313.063L277.678 312.614C278.464 310.449 280.109 309.12 281.615 307.478C286.011 302.684 288.97 299.977 288.852 293.18Z"/><path transform="matrix(1.05409 0 0 1.05409 -163.384 -278.28)" d="M358.036 288.859C359.481 288.756 360.73 288.729 362.051 289.482C365.121 291.231 367.319 298.054 368.008 301.342C370.318 297.78 379.14 288.21 383.808 291.09C386.653 295.02 380.252 303.008 377.855 306.069C376.451 307.705 365.931 319.231 364.917 319.4L364.69 318.947C364.813 317.87 365.52 317.384 366.312 316.573C360.933 311.702 358.487 303.037 356.858 296.22C356.23 293.59 355.757 290.706 358.036 288.859ZM367.896 314.6C369.827 312.604 372.181 310.291 373.963 308.208C374.393 305.369 375.573 302.075 375.162 299.47L374.815 299.045C373.559 302.859 370.69 311.565 367.494 313.676C367.608 314.378 367.466 314.073 367.896 314.6ZM377.853 299.306C378.957 297.025 380.184 295.486 381.836 293.44C381.799 293.304 381.761 293.167 381.723 293.031L381.296 293.019L377.289 294.137C377.327 295.217 377.16 298.736 377.452 299.31L377.853 299.306ZM368.821 304.705C371.314 300.741 372.413 301.549 374.488 296.483L374.243 296.158C372.432 297.647 368.174 302.06 368.494 304.553L368.821 304.705ZM361.518 303.947C362.016 305.294 362.555 306.685 363.012 308.041L363.519 307.898C364.075 306.527 363.89 302.978 363.865 301.318C363.539 300.74 363.766 300.89 363.298 300.729C362.684 301.947 362.259 302.79 361.518 303.947ZM378.322 301.762C379.274 300.555 381.306 298.27 381.239 296.749L381.05 296.438C379.776 298.026 379.105 299.517 378.186 301.327L378.246 301.711L378.322 301.762Z"/><path fill="#EBEBE6" fill-opacity="0.0078431377" transform="matrix(1.05409 0 0 1.05409 -163.384 -278.28)" d="M374.243 296.158L374.488 296.483C372.413 301.549 371.314 300.741 368.821 304.705L368.494 304.553C368.174 302.06 372.432 297.647 374.243 296.158Z"/><path fill="#BFBCBA" fill-opacity="0.086274512" transform="matrix(1.05409 0 0 1.05409 -163.384 -278.28)" d="M381.05 296.438L381.239 296.749C381.306 298.27 379.274 300.555 378.322 301.762L378.246 301.711L378.186 301.327C379.105 299.517 379.776 298.026 381.05 296.438Z"/></g></svg>