<?xml version="1.0" encoding="utf-8" ?><svg xmlns="http://www.w3.org/2000/svg" xmlns:xlink="http://www.w3.org/1999/xlink" width="1200" height="314" viewBox="0 0 1200 314"><path d="M620.075 173.14C624.515 178.706 626.611 182.818 634.624 178.362C637.549 176.734 632.962 155.886 632.376 152.68L625.905 117.463C624.276 108.649 622.419 105.235 625.031 96.4043C627.249 100.736 633.76 112.252 633.252 116.359L632.583 116.486L630.611 114.413C628.142 117.502 644.494 166.655 635.756 184.782C632.74 186.932 630.674 187.64 627.182 188.798C626.417 196.424 626.469 200.928 619.249 206.122C609.784 212.93 590.689 225.963 580.531 213.7C577.72 210.308 575.773 204.068 576.49 199.849C577.207 191.09 582.403 184.862 584.402 176.934C584.011 175.87 583.687 174.986 583.428 174.284C582.29 173.854 581.037 174.436 579.986 174.903C561.91 182.93 524.531 232.182 505.236 224.976C501.964 223.754 499.579 220.888 498.208 217.756C494.736 209.823 497.272 199.968 500.346 192.269C500.891 190.91 501.451 189.556 502.026 188.209C497.036 191.621 489.262 198.323 484.622 203.246C470.178 218.569 457.333 215.059 458.998 192.868C459.327 188.481 464.192 180.597 467.149 176.557C463.536 173.886 463.074 173.49 461.835 169.156C436.766 172.725 412.448 178.627 387.167 181.838C349.301 186.648 311.357 188.285 273.244 188.782C235.71 189.271 191.821 189.17 155.494 179.263C155.572 181.694 155.964 185.215 154.918 187.288C153.546 188.486 154.152 188.298 152.47 188.255C147.536 185.362 145.487 179.189 145.228 173.789C128.845 172.249 123.727 178.463 112.549 189.066C103.786 197.38 93.3074 208.826 86.2792 191.779L87.4761 188.234C91.8577 199.173 103.208 189.736 108.532 184.643C122.053 171.707 127.439 165.235 146.872 164.986C161.405 179.699 239.127 181.205 260.568 181.549C326.236 182.602 391.971 176.563 456.269 163.314C458.446 162.865 463.312 161.672 465.146 162.867C465.997 166.063 464.991 165.594 466.826 167.769C474.692 171.36 489.74 163.576 497.527 160.349C481.948 157.055 479.879 158.746 465.197 157.478C466.889 150.472 468.561 147.372 477.113 149.067C493.326 152.28 508.505 154.33 524.965 155.694L521.348 162.787C518.943 162.66 513.619 162.322 511.426 162.637C495.473 164.933 485.487 175.49 468.966 177.137C464.19 183.76 459.061 190.585 460.328 199.281C460.904 203.23 463.717 207.199 468.173 206.023C481.021 202.631 488.869 189.37 499.711 182.516C510.05 176.095 519.676 174.911 529.804 167.926C526.855 147.213 521.978 127.219 518.831 106.601C518.619 105.211 519.719 102.001 520.181 100.583C521.914 104.168 528.48 116.202 528.491 119.302C527.196 119.181 526.3 117.989 525.155 116.968L524.726 117.376C526.572 131.844 537.404 160.859 528.632 174.807C525.824 179.274 510.956 184.387 505.15 186.708C500.694 193.193 498.066 203.685 499.531 211.578L499.57 211.787C501.613 214.43 503.581 217.23 507.126 217.62C515.194 218.508 525.623 211.958 531.69 207.138C547.642 194.465 562.16 178.631 579.525 167.796C575.048 163.893 563.856 157.898 563.291 153.089C560.851 132.323 615.06 144.257 624.999 148.274C624.413 150.516 623.828 152.954 623.187 155.161C610.682 160.353 603.038 162.195 590.327 168.718C593.483 174.107 594.041 175.715 594.562 181.946C591.425 180.801 589.823 180.197 586.836 178.562C578.466 190.77 571.287 212.499 596.572 210.028C604.371 209.266 619.447 199.694 624.869 193.841C623.513 188.482 622.148 186.039 619.203 181.262C619.411 178.69 619.575 175.632 620.075 173.14ZM566.591 150.775C573.564 154.963 578.304 158.439 583.467 164.778C588.266 162.651 594.109 159.513 598.674 157.745C604.068 155.408 606.517 154.246 612.209 152.715C604.032 150.919 584.665 147.868 576.394 149.012C572.9 149.522 570.041 149.933 566.591 150.775Z"/><path d="M1100.19 136.936L1101.84 129.964C1104.08 132.913 1109.01 138.922 1110.08 142.237C1109.24 143.768 1107.99 143.324 1108.78 144.786C1112.79 152.232 1125.54 174.389 1114.28 180.162C1110.57 182.069 1105.4 178.525 1102.9 174.16C1101.54 178.068 1100.6 181.45 1096.69 183.586C1092.82 185.702 1089.99 181.167 1089.52 177.884L1088.86 177.926C1086.53 181.229 1083.31 186.45 1079.13 187.31C1075.26 188.106 1072.81 182.961 1072.12 179.96C1043.89 184.453 1016.4 191.034 987.885 194.372C953.574 198.389 918.033 200.02 883.536 200.643C846.818 201.306 800.895 201.445 765.506 191.683C765.712 194.233 766.293 197.606 765.163 199.799C763.618 200.981 764.333 200.775 762.251 200.498C749.684 192.682 763.062 184.924 745.421 185.941C729.88 186.837 705.344 232.097 696.623 204.528C694.931 199.179 697.344 191.933 699.804 187.079C695.795 181.825 695.359 180.376 693.943 173.915C692.576 200.145 667.222 199.028 669.675 170.521C669.946 167.507 670.339 164.505 670.854 161.523C665.57 170.302 666.21 189.537 658.455 193.668C653.262 196.433 648.896 184.2 647.661 179.582L648.943 176.996C650.051 180.488 651.619 185.053 654.497 187.427C665.599 190.73 662.436 157.043 671.925 153.076C677.608 155.847 666.873 177.642 678.149 183.429C680.015 184.39 682.191 184.555 684.18 183.886C695.938 179.936 690.538 161.479 688.101 153.206C688.825 151.049 689.652 148.322 690.456 146.248C692.145 150.08 692.888 151.805 694.042 155.903C696.267 163.802 696.038 177.296 704.617 181.034C706.297 181.766 709.074 182.22 710.898 181.851C712.818 180.445 713.281 179.452 712.661 176.956C709.727 165.135 700.384 156.296 703.806 143.521C705.672 146.189 712.185 154.644 711.814 157.268C710.737 157.003 710.595 156.833 709.782 156.113C709.506 157.904 714.567 167.583 715.137 170.7C717.247 182.242 716.453 194.664 700.905 188.218C691.029 208.815 704.478 210.735 717.883 197.987C731.847 184.706 737.545 177.195 757.82 178.188C778.775 196.802 901.436 193.938 933.407 192.04C949.055 191.112 980.835 188.446 996.522 186.343C1013.4 183.948 1030.21 181.111 1046.94 177.837C1051.67 176.949 1071.68 172.166 1074.8 174.163C1076.38 177.257 1075.31 177.464 1077.58 179.199C1087.45 180.532 1088.16 170.506 1091.82 169.639C1091.79 170.402 1091.74 171.192 1091.75 171.952C1091.8 175.977 1097.14 177.819 1099.92 174.68C1102.37 171.916 1102.94 167.978 1104.18 164.589C1105.46 169.135 1108.37 173.737 1114.73 173.447C1115.09 173.431 1115.65 172.471 1115.91 172.096C1116.36 167.938 1109.21 157.001 1107.25 152.548C1105.16 147.761 1102.64 141.508 1100.19 136.936Z"/><path d="M645.721 96.562C647.947 101.039 653.98 112.207 653.453 116.66L651.352 114.534L650.798 114.941C650.713 116.646 656.906 153.868 656.914 153.882L658.327 153.545L659.065 154.038C658.313 154.76 657.231 155.474 657.276 156.552C657.734 167.468 659.139 175.155 656.165 186.001C655.148 182.572 653.371 160.457 652.469 154.233C650.778 143.027 648.979 131.837 647.072 120.665C645.305 110.514 643.1 106.633 645.721 96.562Z"/><path d="M709.652 99.3231C711.676 100.654 718.631 114.614 718.159 117.386C716.803 117.429 716.166 116.353 714.924 115.198C716.961 135.193 726.597 156.64 724.97 178.449C724.824 180.125 724.557 182.228 723.3 183.314C722.337 181.611 721.299 169.863 720.651 166.474C718.18 153.538 715.605 140.563 712.867 127.679C711.472 121.113 710.224 111.766 707.947 105.702L709.652 99.3231Z"/><path d="M539.386 101.065C542.312 103.029 547.367 117.52 548.648 121.098C546.177 119.206 546.187 117.904 544.103 116.309C543.743 119.484 548.485 140.162 549.249 144.91C551.364 158.046 552.769 168.353 552.498 181.806L550.436 189.493C549.931 162.252 542.155 133.873 538.223 106.961C538.002 105.449 538.933 102.539 539.386 101.065Z"/><path d="M614.096 90.7974L614.804 91.0579L614.728 92.4116C613.797 93.4755 583.49 103.806 578.461 106.693C576.507 107.815 550.771 118.947 550.387 118.985C552.642 115.565 557.81 113.351 561.439 111.607C561.768 109.268 561.642 107.556 561.544 105.204C559.852 101.791 552.079 93.4002 553.374 91.7192C554.746 92.2288 555.606 93.1965 556.627 94.2255C562.156 99.8018 562.51 104.041 562.502 111.292C580.388 102.767 595.618 97.1803 614.096 90.7974Z"/><path d="M618.441 106.536L619.478 106.996L619.505 108.081C618.331 109.757 610.764 111.931 608.329 112.87C589.171 120.262 570.775 127.362 552.641 137.008C554.468 138.509 555.679 139.602 557.349 141.275C555.927 142.376 556.57 142.178 554.763 142.057C548.248 137.48 556.458 132.06 560.66 130.016C579.504 120.852 599.11 114.328 618.441 106.536Z"/><path d="M510.831 96.2068L510.712 97.4618C508.555 99.92 499.542 101.976 495.958 103.718C479.734 111.605 452.176 119.271 438.38 130.269C441.54 132.543 442.365 132.629 443.443 136.022C441.503 135.739 439.631 134.486 438.639 132.805C438.355 131.646 438.244 130.639 438.762 129.525C443.084 120.24 499.009 100.231 510.831 96.2068Z"/><path d="M678.485 96.4283C686.038 97.1603 686.985 107.353 687.275 113.014C691.202 111.277 700.471 106.07 704.056 105.667L704.271 106.418C703.006 108.736 694.752 112.015 691.906 113.45C683.499 117.631 675.191 122.008 666.989 126.578C663.896 128.182 660.508 130.473 657.538 132.37C659.156 133.422 661.903 134.683 661.533 136.769L660.175 136.84C647.536 129.787 681.616 116.765 686.117 113.05C687.978 103.799 678.481 101.32 678.485 96.4283Z"/><path d="M124.527 111.513C127.008 111.34 130.69 111.506 133.264 111.546C132.269 114.376 131.296 116.782 130.11 119.528C128.528 123.194 117.941 126.687 115.491 125.213L116.571 124.227C120.581 122.34 124.463 120.246 128.381 118.174C123.649 118.28 118.937 118.812 114.301 119.763L117.967 112.905C119.913 112.384 122.507 111.928 124.527 111.513Z"/><path d="M438.363 181.354L446.564 184.987L444.478 192.006C446.824 192.961 449.297 194.123 451.624 195.165L449.951 202.585C447.827 201.84 443.63 199.733 441.438 198.714L443.746 191.987L435.745 188.494L438.363 181.354Z"/><defs><linearGradient id="gradient_0" gradientUnits="userSpaceOnUse" x1="102.52226" y1="147.44408" x2="89.961723" y2="157.67943"><stop offset="0" stop-color="#0F0E0E" stop-opacity="0.95686275"/><stop offset="1" stop-color="black"/></linearGradient></defs><path fill="url(#gradient_0)" d="M95.1539 138.557L96.345 138.987C95.4631 143.584 93.1056 157.603 99.0089 159.493C103.173 158.578 103.536 155.664 104.204 152.06L104.647 152.085C106.066 157.368 102.935 167.289 96.3318 167.04L95.5575 165.476C95.1145 164.854 94.7006 164.213 94.317 163.553C90.2615 156.519 93.2175 145.864 95.1539 138.557Z"/><path d="M658.327 153.545C662.151 150.251 676.317 141.48 676.709 137.609C675.36 134.736 673.788 131.67 674.545 128.452C675.752 126.785 675.126 127.186 677.006 126.725C681.056 128.011 684.248 133.835 683.714 138.029L683.059 138.966C681.361 138.795 679.516 137.645 678.601 138.681C672.578 145.498 667.111 149.733 659.065 154.038L658.327 153.545Z"/><path d="M672.075 195.091C672.681 195.579 672.53 195.646 672.718 196.551C671.313 198.449 664.526 200.885 661.918 202.066L635.635 214.071L635.24 213.84L635.4 212.704C637.287 209.786 667.41 197.08 672.075 195.091Z"/><path d="M633.863 85.2714C636.248 86.772 636.309 88.267 637.926 91.0857C642.56 93.9907 641.461 88.0164 647.196 87.0544C648.73 87.8526 648.842 88.2378 649.537 89.865C649.01 94.1194 644.114 94.8523 640.574 95.5446L639.93 95.8292L639.403 95.6252C639.223 96.3948 639.37 96.1193 638.53 96.657C638.873 96.1065 638.849 95.9685 638.934 95.3114C635.287 92.8824 636.536 96.3409 630.786 95.6291L629.42 96.7028L629.247 95.7806C631.742 90.9433 632.472 94.4786 635.267 92.791C635.893 91.1248 634.38 87.6415 633.863 85.2714Z"/><path d="M574.542 197.339L575.47 197.387L575.963 198.009C574.806 200.271 545.927 212.201 541.012 214.407C540.628 214.415 540.043 214.167 539.646 214.03L540.011 212.826C543.772 209.731 568.622 199.813 574.542 197.339Z"/><path d="M426.235 193.775L427.35 194.11L427.429 194.869C424.487 198.276 398.297 208.725 392.78 210.931C391.998 211.303 392.349 211.237 391.332 211.001C391.686 209.902 392.219 209.128 393.299 208.577C403.889 203.182 415.603 199.228 426.235 193.775Z"/><path d="M166.168 189.731C167.083 189.565 167.237 189.69 168.074 190.125L168.034 191.149C165.403 193.44 142.302 201.098 136.666 203.343C135.671 203.901 136.105 203.838 135.037 203.625L135.097 202.581C137.923 199.061 159.94 192.105 166.168 189.731Z"/><path d="M777.286 202.033L778.387 202.404L778.115 203.426C775.368 205.82 752.534 213.671 746.703 216.263C746.311 216.431 745.736 216.458 745.288 216.509L745.241 215.363C747.673 211.699 771.346 204.229 777.286 202.033Z"/><path d="M731.782 122.829C729.194 121.323 727.385 120.941 727.677 117.409L728.3 117.103C731.372 118.336 732.566 121.106 734.082 123.976C735.549 122.263 733.652 116.119 736.845 113.756C738.764 114.396 738.259 113.958 739.399 115.411L739.448 117.41C736.944 117.762 737.817 115.579 735.98 117.469C734.142 124.732 735.051 127.051 739.53 132.228C738.799 135.177 735.409 134.932 732.877 135.98L732.268 135.723C732.915 132.922 732.864 133.669 735.644 131.525C734.338 131.002 734.794 131.112 733.181 131.764C733.05 126.331 734.76 128.784 731.782 122.829Z"/><path d="M1095.11 194.979L1095.87 195.374C1095.92 196.274 1095.95 196.69 1095.54 197.542C1095.21 198.768 1088.57 202.207 1087.69 201.94C1080.68 199.815 1074.83 206.412 1069.39 210.28C1065.29 213.195 1064.33 213.723 1059.12 215.334C1060.69 213.521 1078.18 201.941 1081.28 199.672C1083.85 197.785 1087.47 202.193 1091.24 196.446C1092.18 196.267 1092.38 196.684 1093.42 197.349L1094.33 196.959L1095.11 194.979Z"/><path d="M704.659 87.5646C708.268 90.2574 706.23 91.8437 708.768 93.5778C711.435 92.8478 711.668 90.041 715.021 88.3819C716.816 88.4769 716.181 88.2803 717.686 89.6148C718.738 93.492 715.26 95.1722 712.164 96.5117C709.309 96.9255 709.273 96.3676 706.466 95.8249C706.466 95.8249 704.497 97.3397 704.497 97.3397C703.102 97.2922 700.938 97.5194 699.616 97.6512C700.079 95.6021 699.697 95.9123 701.066 94.5917C702.776 94.3963 703.61 94.4494 705.293 94.5404L706.065 93.7638C705.521 91.7152 705.052 89.6474 704.659 87.5646Z"/><path d="M121.826 158.048C123.518 159.062 126.127 161.899 125.336 164.005C121.962 166.139 120.98 162.564 118.091 166.556C113.174 173.353 106.269 176.362 98.6917 178.104L96.1883 178.872C99.0121 176.055 113.253 171.481 117.062 165.525C118.416 163.408 120.506 159.903 121.826 158.048Z"/><path d="M527.626 88.8363C529.51 90.205 531.181 94.0841 532.329 96.3105C534.701 93.7271 537.291 89.4127 541.179 92.1314C541.906 96.1641 539.239 97.0396 536.081 98.176C535.279 98.2633 533.081 98.6419 532.489 98.3564C529.233 96.7863 527.165 99.7142 523.716 97.4188L523.855 96.267C525.439 94.8079 525.851 96.2185 528.95 95.6853C529.662 94.1818 528.198 91.2652 527.626 88.8363Z"/><path d="M517.587 191.686C520.41 192.549 523.384 194.191 526.043 195.547L523.839 202.574C522.025 202.763 516.811 199.78 514.955 198.824L517.587 191.686Z"/><path d="M596.49 185.782C598.249 185.594 599.66 185.265 601.228 186.097C603.091 190.01 596.172 192.174 596.457 196.143C601.459 199.032 608.701 191.564 611.999 188.671C610.862 190.96 609.221 192.725 607.57 194.66C604.563 197.679 600.652 200.225 596.188 199.387C592.751 196.321 597.416 191.202 599.439 188.343C597.608 188.171 596.539 189.142 594.634 190.108L594.422 189.477C594.968 187.667 595.362 187.223 596.49 185.782Z"/><path d="M1127.29 198.127L1127.23 198.8C1126.28 200.225 1097.1 212.618 1093.62 214.201L1093.58 212.911C1095.45 210.138 1122.66 199.188 1127.29 198.127Z"/><path d="M1107.11 186.807C1110.41 187.928 1111.95 188.986 1114.84 190.809C1114.07 193.509 1113.5 195.099 1112.42 197.693C1109.88 196.65 1107.54 195.431 1105.1 194.194C1105.59 191.175 1106.1 189.715 1107.11 186.807Z"/><path d="M696.595 121.114C699.97 124.332 697.42 127.725 702.033 129.473C701.699 127.501 699.974 122.447 700.468 121.513C702.516 123.987 704.377 127.914 702.98 131.073C701.233 132.401 701.584 131.991 698.908 131.765L698.35 130.873C696.986 132.843 696.647 133.859 694.154 133.338C692.372 131.214 692.657 126.724 692.693 123.958C693.273 126.115 693.808 128.72 695.043 130.523L696.273 130.396C699.429 126.667 695.122 125.419 696.595 121.114Z"/><path d="M573.036 86.3946C575.186 90.1639 577.525 87.5815 580.133 91.7825C580.381 94.033 580.035 94.7406 579.27 96.8409C576.184 97.5342 575.301 97.9853 573.139 95.498C572.26 93.1212 572.838 89.0562 573.036 86.3946Z"/><path d="M474.446 181.569L475.245 182.124C476.972 186.053 471.904 187.659 470.839 192.107L471.584 193.009C477.117 194.314 482.696 190.412 487.52 187.742C485.765 189.63 483.589 191.41 481.617 193.1C478.699 194.804 472.761 197.252 469.678 194.818C468.636 190.489 473.144 188.358 474.051 184.478C473.234 184.006 470.752 185.085 469.269 185.387C469.62 182.901 472.433 182.239 474.446 181.569Z"/><path d="M127.859 184.071C130.636 184.701 132.825 187.503 134.818 189.592C131.674 190.354 128.535 191.132 125.399 191.926C126.641 195.97 127.802 200.04 128.879 204.131C129.118 205.189 129.122 205.932 129.166 207.006L128.655 206.693C124.69 197.504 124.532 192.819 127.859 184.071Z"/><path d="M668.701 98.0715C669.922 98.5891 672.371 99.6453 672.588 101.031C671.953 101.968 669.565 102.306 668.163 102.692C667.418 104.703 667.886 111.641 667.912 114.454C666.42 112.045 664.877 109.668 663.284 107.325C662.179 106.833 660.984 106.22 659.884 105.686C658.848 103.946 658.942 104.621 659.106 102.781L660.271 102.378C663.895 103.47 664.907 106.235 666.764 109.486C666.647 104.69 667.041 102.553 668.701 98.0715Z"/><path d="M614.007 121.065C616.796 122.485 618.98 128.391 616.725 131.39C613.958 131.989 615.185 130.695 612.574 130.324L611.355 132.579C609.664 133.202 610.338 133.199 608.63 132.653C606.855 130.786 606.032 124.955 607.136 122.868L607.419 124.205C607.79 126.707 607.894 128.774 609.564 130.534L610.699 130.236C613.857 126.585 610.011 125.334 610.882 121.899C612.984 123.17 611.738 127.204 615.516 128.947L616.526 128.419C616.583 126.2 614.862 124.459 614.007 121.065Z"/><path d="M592.889 123.183C595.398 123.437 596.322 124.252 596.962 126.535C595.677 128.19 595.298 125.614 593.035 126.341C591.876 128.828 592.38 136.538 592.447 139.618C591.005 136.519 590.093 134.372 588.061 131.572C585.323 131.27 584.663 131.272 583.747 128.595L584.323 127.506L585.851 127.43C588.984 128.899 589.996 131.504 591.48 134.558C591.613 130.529 591.382 126.879 592.889 123.183Z"/><path d="M682.697 198.664C684.364 199.066 684.659 199.279 686.014 200.338C686.366 202.036 686.495 201.473 685.759 202.84L683.879 201.695L683.026 202.285C682.055 204.292 681.932 210.798 681.674 213.681C680.394 211.024 679.704 209.365 677.702 207.127C676.143 206.554 675.785 206.436 674.498 205.405C673.931 203.636 673.855 204.241 674.463 202.709L675.794 202.583C679.231 204.195 679.84 206.545 681.325 209.972C681.336 205.536 681.294 202.906 682.697 198.664Z"/><path d="M1085.38 142.025C1087.45 142.614 1088.59 142.997 1089.04 145.191C1087.81 145.51 1086.79 145.695 1085.54 145.911C1084.79 147.561 1085.41 155.373 1085.49 157.874C1084.07 155.928 1082.15 153.916 1080.51 152.11C1078.93 151.804 1078.53 151.698 1077.08 150.989C1076.34 149.514 1076.33 150.044 1076.72 148.627L1077.92 148.284C1081.5 149.009 1082.58 151.232 1084.68 154.231C1084.47 150.209 1084.06 145.799 1085.38 142.025Z"/><path d="M456.588 132.852C458.956 136.541 459.339 134.645 462.541 137.774C463.306 139.663 462.757 140.979 462.255 142.958C460.579 143.548 460.248 143.69 458.533 143.338C455.784 140.452 456.527 137.087 456.588 132.852Z"/><path d="M486.973 122.551C489.566 123.554 490.203 123.909 490.333 126.533C488.987 127.939 489.575 125.486 487.152 125.571C485.903 128.916 486.335 135.509 486.397 139.282C484.721 136.055 483.578 134.52 481.451 131.643C478.95 131.026 478.084 130.898 477.739 128.235L478.578 127.623C482.256 128.578 483.719 132.015 485.719 135.252C485.568 130.587 485.291 126.975 486.973 122.551Z"/><path d="M1075.92 122.241C1077.23 127.015 1078.62 124.392 1081.3 128.314C1081.88 130.316 1081.45 131.294 1080.88 133.265C1073.15 134.543 1075.35 127.516 1075.92 122.241Z"/><path d="M466.397 93.9172C466.983 94.1911 468.084 94.882 468.689 95.2391C469.671 96.9393 469.53 96.2274 469.354 98.109C468.386 97.945 467.61 97.4137 466.755 96.9229L465.961 97.6129C464.946 100.895 465.275 105.683 465.19 109.4C463.959 107.427 462.051 104.862 460.683 102.896C458.15 102.126 456.967 102.2 456.741 99.3654L457.739 98.9195C461.33 99.9144 462.516 102.531 464.529 105.621C464.516 100.949 464.311 98.2052 466.397 93.9172Z"/><path d="M502.534 116.886C504.771 118.19 504.928 120.027 505.93 122.572C507.742 124.038 507.282 123.638 509.735 124.034L510.222 124.74L509.541 126.141C507.062 127.118 507.173 125.365 506.181 125.542C502.668 126.168 505.321 129.165 500.042 127.694C499.73 126.061 498.815 121.772 498.807 120.334C499.595 122.295 500.17 124.16 501.7 125.619C503.387 125.449 502.802 125.701 504.063 124.203C504.584 122.042 503.281 119.084 502.534 116.886Z"/><path d="M561.799 219.18C560.58 215.342 560.311 205.846 566.148 207.039C567.438 208.329 567.555 209.083 568.054 210.795C566.849 213.059 565.777 211.485 562.657 213.701C561.717 215.833 562.161 215.674 562.875 218.393L561.799 219.18Z"/><path d="M95.5575 165.476L96.3318 167.04C91.2691 174.315 87.8299 178.89 87.4761 188.234L86.2792 191.779C85.0476 180.541 89.5805 174.168 95.5575 165.476Z"/><path d="M735.84 203.523C736.364 201.573 736.879 198.555 738.234 197.383C740.362 197.866 740.707 198.07 742.325 199.484C742.979 201.368 743.017 200.621 742.13 202.463C740.087 204.018 738.508 203.746 736.189 204.408L735.84 203.523Z"/><path d="M732.268 135.723L732.877 135.98C733.409 140.106 737.931 149.643 738.224 156.86L737.448 156.79C736.313 151.494 731.321 139.49 732.268 135.723Z"/><path d="M527.464 182.403C532.283 183.184 532.833 187.98 534.904 189.051C535.098 187.796 535.1 185.873 535.143 184.557C535.745 185.366 535.362 188.651 535.306 189.954C535.617 191.319 535.55 191.582 535.241 192.961C534.02 192.191 533.249 189.88 532.62 188.456C528.902 186.386 527.902 186.593 527.464 182.403Z"/><path fill="#646066" fill-opacity="0.54509807" d="M120.508 148.837C120.657 146.02 120.442 139.452 122.791 137.684C124.729 138.155 124.041 137.823 125.575 139.451L126.023 141.203L125.618 141.867C124.486 141.27 123.873 140.863 122.607 140.696C121.108 142.434 122.654 149.978 121.332 152.218L120.562 152.196C121.269 151.052 121.239 150.733 121.264 149.368L120.508 148.837Z"/><path fill="#646066" fill-opacity="0.6156863" d="M445.16 152.937C445.274 149.817 445.132 144.797 447.258 142.522L448.486 142.434C449.808 143.601 450.21 143.868 450.767 145.51L450.458 146.366C448.008 145.977 449.779 145.093 447.522 145.456C445.334 148.861 447.189 155.715 446.031 157.5L445.801 157.062C445.996 155.635 445.968 154.922 445.914 153.478L445.16 152.937Z"/><path fill="#2F2E31" fill-opacity="0.89411765" d="M95.1539 138.557C96.9422 132.453 99.2691 125.083 102.755 119.692C101.106 124.828 97.4361 134.407 96.345 138.987L95.1539 138.557Z"/><path fill="#2F2E31" fill-opacity="0.90980393" d="M735.84 203.523L736.189 204.408C735.942 208.818 739.667 215.471 739.564 220.525L739.013 220.829C737.864 217.245 733.84 206.497 735.84 203.523Z"/><path d="M647.661 179.582C647.284 176.439 646.996 166.702 648.361 164.112C648.603 168.404 648.797 172.699 648.943 176.996L647.661 179.582Z"/><path d="M116.739 145.92C114.102 145.601 113.397 145.651 112.517 143.073L113.2 141.854L114.662 141.586C116.585 142.276 117.136 143.474 118.232 145.17L116.739 145.92Z"/><path d="M441.013 150.769L438.625 149.813C437.529 148.361 437.669 148.968 437.795 147.318L439.002 146.736C440.866 146.922 441.769 148.3 443.035 149.715L441.013 150.769Z"/><path d="M118.232 145.17C119.36 146.64 119.707 147.108 120.508 148.837L121.264 149.368C121.239 150.733 121.269 151.052 120.562 152.196C119.189 149.414 118.659 148.328 116.739 145.92L118.232 145.17Z"/><path d="M443.035 149.715L445.16 152.937L445.914 153.478C445.968 154.922 445.996 155.635 445.801 157.062C444.423 154.357 443.281 152.745 441.013 150.769L443.035 149.715Z"/><path fill="#2F2E31" fill-opacity="0.87450981" d="M562.875 218.393C563.416 220.607 564.249 223.3 563.943 225.503C562.889 224.637 562.258 220.754 561.799 219.18L562.875 218.393Z"/></svg>